<svg xmlns="http://www.w3.org/2000/svg"
 xmlns:xlink="http://www.w3.org/1999/xlink"
 width="67px" height="43px"  viewBox="0 0 67 43">
<path fill-rule="evenodd"  fill="#243f4d"
 d="M61.519714,18.957153 C61.519714,18.957153 59.862305,12.406982 59.862305,12.406982 C60.31549,12.312012 60.655457,11.914673 60.655457,11.438965 C60.655457,11.438965 60.655457,10.3828125 60.655457,10.3828125 C60.655457,8.089722 58.767334,6.224365 56.446655,6.224365 C56.446655,6.224365 48.897705,6.224365 48.897705,6.224365 C48.897705,6.224365 48.897705,4.0457764 48.897705,4.0457764 C48.897705,2.9176025 47.96869,1.9998779 46.82666,1.9998779 C46.82666,1.9998779 8.346497,1.9998779 8.346497,1.9998779 C7.204468,1.9998779 6.2754517,2.9176025 6.2754517,4.0457764 C6.2754517,4.0457764 6.2754517,22.0 6.2754517,22.0 C6.2754517,22.546509 6.72406,22.989746 7.277588,22.989746 C7.8309326,22.989746 8.279663,22.546509 8.279663,22.0 C8.279663,22.0 8.279663,4.0457764 8.279663,4.0457764 C8.279663,4.0093994 8.309631,3.9798584 8.346497,3.9798584 C8.346497,3.9798584 46.826538,3.9798584 46.826538,3.9798584 C46.863403,3.9798584 46.89325,4.0093994 46.89325,4.0457764 C46.89325,4.0457764 46.89325,22.000244 46.89325,22.000244 C46.89325,22.546753 47.34198,22.989868 47.895447,22.989868 C48.448853,22.989868 48.897583,22.546753 48.897583,22.000244 C48.897583,22.000244 48.897583,20.877563 48.897583,20.877563 C48.897583,20.877563 60.718628,20.877563 60.718628,20.877563 C60.719666,20.877563 60.72046,20.877808 60.721252,20.877808 C60.72229,20.877808 60.723206,20.877563 60.724,20.877563 C62.17871,20.878662 63.41382,21.8219 63.838074,23.121948 C63.838074,23.121948 60.722046,23.121948 60.722046,23.121948 C60.16864,23.121948 59.71991,23.565063 59.71991,24.11206 C59.71991,24.11206 59.71991,26.224243 59.71991,26.224243 C59.71991,27.934814 61.12848,29.326538 62.859863,29.326538 C62.859863,29.326538 63.995544,29.326538 63.995544,29.326538 C63.995544,29.326538 63.995544,33.682983 63.995544,33.682983 C63.995544,33.682983 61.375305,33.682983 61.375305,33.682983 C60.514587,31.227417 58.151978,29.458618 55.377563,29.458618 C52.60315,29.458618 50.240417,31.227417 49.37982,33.682983 C49.37982,33.682983 48.89734,33.682983 48.89734,33.682983 C48.89734,33.682983 48.89734,26.224243 48.89734,26.224243 C48.89734,25.677246 48.44873,25.23413 47.895203,25.23413 C47.341858,25.23413 46.893066,25.677246 46.893066,26.224243 C46.893066,26.224243 46.893066,33.68286 46.893066,33.68286 C46.893066,33.68286 26.102112,33.68286 26.102112,33.68286 C25.241272,31.22705 22.878662,29.458374 20.10437,29.458374 C17.329956,29.458374 14.967224,31.22705 14.106506,33.68286 C14.106506,33.68286 8.346497,33.68286 8.346497,33.68286 C8.309631,33.68286 8.279663,33.65332 8.279663,33.6167 C8.279663,33.6167 8.279663,31.438354 8.279663,31.438354 C8.279663,31.438354 12.62207,31.438354 12.62207,31.438354 C13.175415,31.438354 13.6241455,30.99524 13.6241455,30.448486 C13.6241455,29.90149 13.175537,29.458374 12.62207,29.458374 C12.62207,29.458374 3.0020752,29.458374 3.0020752,29.458374 C2.4486694,29.458374 1.999939,29.90149 1.999939,30.448486 C1.999939,30.99524 2.4485474,31.438354 3.0020752,31.438354 C3.0020752,31.438354 6.2755737,31.438354 6.2755737,31.438354 C6.2755737,31.438354 6.2755737,33.6167 6.2755737,33.6167 C6.2755737,34.744873 7.20459,35.66284 8.346558,35.66284 C8.346558,35.66284 13.7595215,35.66284 13.7595215,35.66284 C13.759277,35.68518 13.7578125,35.707153 13.7578125,35.729004 C13.7578125,39.186523 16.60498,41.99951 20.10437,41.99951 C23.60376,41.99951 26.450806,39.186523 26.450806,35.729004 C26.450806,35.706665 26.44934,35.68518 26.449097,35.66284 C26.449097,35.66284 49.032837,35.66284 49.032837,35.66284 C49.032593,35.68518 49.031006,35.707153 49.031006,35.729004 C49.031006,39.186523 51.878174,41.99951 55.377563,41.99951 C58.876953,41.99951 61.72412,39.186523 61.72412,35.729004 C61.72412,35.706665 61.722534,35.68518 61.72229,35.66284 C61.72229,35.66284 64.99768,35.66284 64.99768,35.66284 C65.551025,35.66284 65.99988,35.219727 65.99988,34.672974 C65.99988,34.672974 65.99988,24.111694 65.99988,24.111694 C66.0,21.504395 64.052734,19.33789 61.519714,18.957153 ZM48.897705,8.204346 C48.897705,8.204346 56.446655,8.204346 56.446655,8.204346 C57.662292,8.204346 58.651245,9.181763 58.651245,10.3828125 C58.651245,10.3828125 58.651245,10.44873 58.651245,10.44873 C58.651245,10.44873 48.897705,10.44873 48.897705,10.44873 C48.897705,10.44873 48.897705,8.204346 48.897705,8.204346 ZM48.897705,18.89746 C48.897705,18.89746 48.897705,12.428833 48.897705,12.428833 C48.897705,12.428833 57.802124,12.428833 57.802124,12.428833 C57.802124,12.428833 59.438843,18.89746 59.438843,18.89746 C59.438843,18.89746 48.897705,18.89746 48.897705,18.89746 C48.897705,18.89746 48.897705,18.89746 48.897705,18.89746 ZM20.10437,40.019653 C17.7099,40.019653 15.761902,38.09497 15.761902,35.729248 C15.761902,33.36328 17.7099,31.438599 20.10437,31.438599 C22.498718,31.438599 24.446716,33.36328 24.446716,35.729248 C24.446716,38.09497 22.498718,40.019653 20.10437,40.019653 ZM55.377808,40.019653 C52.98346,40.019653 51.03546,38.09497 51.03546,35.729248 C51.03546,33.36328 52.98346,31.438599 55.377808,31.438599 C57.772217,31.438599 59.720154,33.36328 59.720154,35.729248 C59.720154,38.09497 57.772217,40.019653 55.377808,40.019653 ZM63.99579,27.346436 C63.99579,27.346436 62.860046,27.346436 62.860046,27.346436 C62.233826,27.346436 61.724365,26.843018 61.724365,26.224243 C61.724365,26.224243 61.724365,25.10205 61.724365,25.10205 C61.724365,25.10205 63.995667,25.10205 63.995667,25.10205 C63.995667,25.10205 63.995667,27.346436 63.995667,27.346436 C63.995667,27.346436 63.99579,27.346436 63.99579,27.346436 ZM20.10437,33.682983 C18.962341,33.682983 18.033325,34.600952 18.033325,35.729248 C18.033325,36.857666 18.962341,37.775635 20.10437,37.775635 C21.246338,37.775635 22.175293,36.857666 22.175293,35.729248 C22.175293,34.600952 21.246338,33.682983 20.10437,33.682983 ZM55.377808,33.682983 C54.23578,33.682983 53.306763,34.600952 53.306763,35.729248 C53.306763,36.857666 54.23578,37.775635 55.377808,37.775635 C56.519775,37.775635 57.448853,36.857666 57.448853,35.729248 C57.448853,34.600952 56.519775,33.682983 55.377808,33.682983 ZM43.619934,29.458618 C43.619934,29.458618 28.655396,29.458618 28.655396,29.458618 C28.10205,29.458618 27.65332,29.901733 27.65332,30.448975 C27.65332,30.995728 28.101929,31.438843 28.655396,31.438843 C28.655396,31.438843 43.619934,31.438843 43.619934,31.438843 C44.17334,31.438843 44.62207,30.995728 44.62207,30.448975 C44.62207,29.901733 44.173462,29.458618 43.619934,29.458618 ZM17.966614,25.23413 C17.966614,25.23413 5.1398315,25.23413 5.1398315,25.23413 C4.586426,25.23413 4.1376953,25.677246 4.1376953,26.224243 C4.1376953,26.77124 4.5863037,27.214355 5.1398315,27.214355 C5.1398315,27.214355 17.966614,27.214355 17.966614,27.214355 C18.519897,27.214355 18.968628,26.77124 18.968628,26.224243 C18.968628,25.677246 18.519897,25.23413 17.966614,25.23413 ZM36.846252,11.794678 C36.45508,11.408081 35.820435,11.408081 35.42914,11.794678 C35.42914,11.794678 26.517761,20.599365 26.517761,20.599365 C26.517761,20.599365 21.881836,16.01892 21.881836,16.01892 C21.490479,15.632568 20.855896,15.632568 20.464722,16.01892 C20.073364,16.405762 20.073364,17.03247 20.464722,17.419312 C20.464722,17.419312 25.809265,22.700073 25.809265,22.700073 C26.004822,22.893433 26.261292,22.989746 26.517761,22.989746 C26.774109,22.989746 27.03064,22.893433 27.226257,22.700073 C27.226257,22.700073 36.84613,13.194824 36.84613,13.194824 C37.23755,12.808228 37.23755,12.181519 36.846252,11.794678 Z"/>
</svg>