<svg xmlns="http://www.w3.org/2000/svg"
 xmlns:xlink="http://www.w3.org/1999/xlink"
 width="52px" height="67px"  viewBox="0 0 52 67">
<path fill-rule="evenodd"  fill="#243f4d"
 d="M34.149292,10.011963 C27.180298,6.4570312 18.785278,7.81604 13.259888,13.394043 C6.838257,19.876099 6.1955566,30.212769 11.765015,37.437256 C11.961792,37.692627 12.256226,37.82605 12.553589,37.82605 C12.767944,37.82605 12.983887,37.75659 13.16626,37.613525 C13.601318,37.271606 13.679565,36.638306 13.340942,36.198853 C8.388916,29.775757 8.961182,20.583984 14.672119,14.819092 C19.58606,9.858765 27.05127,8.64978 33.249023,11.810913 C33.740967,12.062256 34.341675,11.862671 34.590332,11.365723 C34.83899,10.869019 34.641724,10.262695 34.149292,10.011963 ZM42.122437,18.062134 C41.873657,17.564941 41.273315,17.3656 40.78076,17.616455 C40.288696,17.867432 40.091064,18.47351 40.33972,18.970459 C43.469116,25.225952 42.270874,32.760864 37.358154,37.71985 C31.646973,43.484863 22.54187,44.0625 16.17871,39.06372 C15.743408,38.721924 15.116333,38.80078 14.777588,39.240112 C14.438965,39.679443 14.517212,40.3125 14.952393,40.65454 C18.212402,43.215332 22.111694,44.475464 25.998535,44.475464 C30.644897,44.475464 35.27356,42.675293 38.77014,39.14514 C44.294434,33.56897 45.64148,25.096313 42.122437,18.062134 ZM39.542725,14.223022 C39.295288,13.94043 39.035522,13.661499 38.77014,13.393799 C38.505005,13.126099 38.22876,12.864014 37.948853,12.614136 C37.535645,12.245239 36.90454,12.28479 36.539673,12.702026 C36.174194,13.119019 36.213013,13.755615 36.62622,14.124512 C36.87561,14.346924 37.121826,14.580566 37.358276,14.819092 C37.59436,15.057739 37.825928,15.3063965 38.046387,15.557983 C38.24353,15.783081 38.518555,15.898315 38.79492,15.898315 C39.029907,15.898315 39.265747,15.814941 39.45569,15.64563 C39.868896,15.2771 39.907837,14.640259 39.542725,14.223022 ZM49.581543,28.076538 C50.247314,26.973755 50.247314,25.604248 49.5813,24.501709 C49.5813,24.501709 48.267822,22.327393 48.267822,22.327393 C48.09485,22.040771 48.027832,21.700684 48.07959,21.369263 C48.07959,21.369263 48.47107,18.858276 48.47107,18.858276 C48.670654,17.578247 48.149902,16.31018 47.112183,15.547974 C47.112183,15.547974 45.076416,14.053467 45.076416,14.053467 C44.80725,13.855469 44.615967,13.567017 44.53772,13.2404785 C44.53772,13.2404785 43.944702,10.767334 43.944702,10.767334 C43.6438,9.510986 42.683716,8.542114 41.43933,8.237793 C41.43933,8.237793 38.989136,7.63916 38.989136,7.63916 C38.66577,7.5600586 38.37976,7.3669434 38.184082,7.095215 C38.184082,7.095215 36.703003,5.040039 36.703003,5.040039 C35.948242,3.9925537 34.691772,3.4663086 33.424316,3.6678467 C33.424316,3.6678467 30.935791,4.0631104 30.935791,4.0631104 C30.607666,4.11499 30.270386,4.0477295 29.986816,3.873169 C29.986816,3.873169 27.832397,2.546753 27.832397,2.546753 C26.740234,1.8743896 25.383423,1.8747559 24.291382,2.546753 C24.291382,2.546753 22.137085,3.8729248 22.137085,3.8729248 C21.853516,4.0474854 21.516602,4.114746 21.18811,4.062622 C21.18811,4.062622 18.700195,3.6676025 18.700195,3.6676025 C17.432861,3.4660645 16.17627,3.9920654 15.421387,5.0394287 C15.421387,5.0394287 13.940674,7.0946045 13.940674,7.0946045 C13.744873,7.366333 13.458984,7.559326 13.135254,7.6384277 C13.135254,7.6384277 10.685303,8.236816 10.685303,8.236816 C9.44104,8.540527 8.480713,9.509888 8.179565,10.766235 C8.179565,10.766235 7.58667,13.239624 7.58667,13.239624 C7.508301,13.565918 7.3171387,13.854614 7.0478516,14.052124 C7.0478516,14.052124 5.0115967,15.547119 5.0115967,15.547119 C3.973877,16.309082 3.453125,17.576904 3.6524658,18.856934 C3.6524658,18.856934 4.0440674,21.369019 4.0440674,21.369019 C4.095581,21.700684 4.0288086,22.040771 3.855835,22.327026 C3.855835,22.327026 2.5419922,24.501953 2.5419922,24.501953 C1.8762207,25.604492 1.8762207,26.973999 2.5422363,28.076538 C2.5422363,28.076538 3.855713,30.251099 3.855713,30.251099 C4.0286865,30.53772 4.095581,30.877563 4.0439453,31.208984 C4.0439453,31.208984 3.6523438,33.72046 3.6523438,33.72046 C3.4527588,35.0 3.9736328,36.268555 5.0113525,37.030518 C5.0113525,37.030518 7.047119,38.525513 7.047119,38.525513 C7.316162,38.72278 7.5075684,39.011475 7.5858154,39.33789 C7.5858154,39.33789 8.178711,41.811157 8.178711,41.811157 C8.479614,43.067505 9.439819,44.03662 10.684204,44.340454 C10.684204,44.340454 11.707275,44.590576 11.707275,44.590576 C11.707275,44.590576 4.783325,60.181885 4.783325,60.181885 C4.6361084,60.513306 4.67688,60.89856 4.8901367,61.191284 C5.1031494,61.483765 5.4555664,61.638184 5.812866,61.59485 C5.812866,61.59485 11.384155,60.922607 11.384155,60.922607 C11.384155,60.922607 14.593506,65.56836 14.593506,65.56836 C14.781494,65.83984 15.087891,65.99963 15.412231,65.99963 C15.443359,65.99963 15.474731,65.99829 15.505981,65.99536 C15.864014,65.96118 16.176514,65.73523 16.323608,65.40381 C16.323608,65.40381 23.39502,49.47986 23.39502,49.47986 C23.39502,49.47986 24.291138,50.031494 24.291138,50.031494 C24.837158,50.367554 25.44934,50.5354 26.061646,50.5354 C26.67395,50.5354 27.28601,50.367554 27.832153,50.031494 C27.832153,50.031494 28.760498,49.460083 28.760498,49.460083 C28.760498,49.460083 35.84082,65.40381 35.84082,65.40381 C35.987915,65.73547 36.300293,65.96118 36.65857,65.99536 C36.68994,65.99829 36.72119,65.99963 36.752197,65.99963 C37.076538,65.99963 37.38318,65.83984 37.5708,65.56836 C37.5708,65.56836 40.780396,60.922607 40.780396,60.922607 C40.780396,60.922607 46.351562,61.595215 46.351562,61.595215 C46.70874,61.63794 47.06128,61.48401 47.274414,61.191284 C47.48755,60.89868 47.528442,60.513428 47.381226,60.181885 C47.381226,60.181885 40.45349,44.58203 40.45349,44.58203 C40.45349,44.58203 41.43811,44.34143 41.43811,44.34143 C42.682495,44.037964 43.6427,43.06836 43.94397,41.812256 C43.94397,41.812256 44.536865,39.33911 44.536865,39.33911 C44.615234,39.01233 44.80652,38.723633 45.075684,38.526367 C45.075684,38.526367 47.11194,37.03125 47.11194,37.03125 C48.14966,36.26941 48.67041,35.001343 48.470947,33.7218 C48.470947,33.7218 48.079468,31.209229 48.079468,31.209229 C48.027832,30.877808 48.094727,30.53772 48.2677,30.25122 C48.2677,30.25122 49.581543,28.076538 49.581543,28.076538 ZM15.222778,62.9552 C15.222778,62.9552 12.679443,59.27356 12.679443,59.27356 C12.468506,58.96826 12.10791,58.804688 11.741943,58.84912 C11.741943,58.84912 7.326782,59.38208 7.326782,59.38208 C7.326782,59.38208 13.635254,45.17627 13.635254,45.17627 C13.750488,45.261597 13.853882,45.36438 13.939209,45.483032 C13.939209,45.483032 15.420166,47.538208 15.420166,47.538208 C15.560913,47.733765 15.718994,47.910645 15.891357,48.068237 C15.891357,48.068237 12.570923,55.545532 12.570923,55.545532 C12.345459,56.053223 12.570435,56.64966 13.073608,56.87732 C13.206299,56.9375 13.344971,56.96582 13.481445,56.96582 C13.862671,56.96582 14.226929,56.74402 14.393066,56.370117 C14.393066,56.370117 17.70166,48.919556 17.70166,48.919556 C18.027222,48.96472 18.362427,48.96411 18.698975,48.9104 C18.698975,48.9104 21.187378,48.515137 21.187378,48.515137 C21.336426,48.491455 21.486938,48.49341 21.633667,48.518066 C21.633667,48.518066 15.222778,62.9552 15.222778,62.9552 ZM44.838013,59.381836 C44.838013,59.381836 40.42273,58.84912 40.42273,58.84912 C40.056274,58.80493 39.696167,58.96826 39.48523,59.27356 C39.48523,59.27356 36.941772,62.9552 36.941772,62.9552 C36.941772,62.9552 30.528198,48.51245 30.528198,48.51245 C30.66272,48.493896 30.799927,48.493896 30.935669,48.515625 C30.935669,48.515625 33.42334,48.910645 33.42334,48.910645 C33.773315,48.96631 34.122314,48.96472 34.460205,48.91382 C34.460205,48.91382 37.771362,56.37036 37.771362,56.37036 C37.9375,56.74414 38.301636,56.966064 38.682983,56.966064 C38.81958,56.966064 38.958252,56.937744 39.0907,56.877563 C39.593994,56.650146 39.81897,56.053467 39.593384,55.545776 C39.593384,55.545776 36.260254,48.040283 36.260254,48.040283 C36.42102,47.889282 36.569702,47.722534 36.70227,47.539062 C36.70227,47.539062 38.182983,45.483765 38.182983,45.483765 C38.276245,45.35437 38.390625,45.243286 38.519043,45.153442 C38.519043,45.153442 44.838013,59.381836 44.838013,59.381836 ZM47.876465,27.026978 C47.876465,27.026978 46.562744,29.20166 46.562744,29.20166 C46.1438,29.895508 45.98169,30.719849 46.106934,31.52246 C46.106934,31.52246 46.498413,34.034668 46.498413,34.034668 C46.58069,34.562866 46.3656,35.086426 45.937256,35.40088 C45.937256,35.40088 43.90088,36.895996 43.90088,36.895996 C43.249146,37.374878 42.785645,38.073853 42.59607,38.864624 C42.59607,38.864624 42.00305,41.33789 42.00305,41.33789 C41.878784,41.856567 41.48242,42.25659 40.96875,42.38208 C40.96875,42.38208 38.518555,42.980713 38.518555,42.980713 C37.734985,43.171997 37.042236,43.640015 36.568115,44.298096 C36.568115,44.298096 35.087402,46.35315 35.087402,46.35315 C34.775757,46.785522 34.257202,47.002563 33.733643,46.91919 C33.733643,46.91919 31.245972,46.52417 31.245972,46.52417 C30.450562,46.397827 29.634033,46.56128 28.946533,46.984497 C28.946533,46.984497 26.792603,48.31018 26.792603,48.31018 C26.341797,48.58777 25.781494,48.58777 25.330933,48.31018 C25.330933,48.31018 23.176392,46.98401 23.176392,46.98401 C22.640503,46.65442 22.026367,46.4823 21.404663,46.4823 C21.229004,46.4823 21.05249,46.49646 20.87732,46.52417 C20.87732,46.52417 18.388672,46.91919 18.388672,46.91919 C17.865234,47.00232 17.34668,46.785156 17.035156,46.352905 C17.035156,46.352905 15.554077,44.297363 15.554077,44.297363 C15.079834,43.639526 14.387329,43.17163 13.603882,42.97986 C13.603882,42.97986 11.153687,42.381226 11.153687,42.381226 C10.640015,42.25586 10.243652,41.855835 10.119385,41.337036 C10.119385,41.337036 9.526367,38.864258 9.526367,38.864258 C9.336914,38.07312 8.873413,37.37378 8.221436,36.89514 C8.221436,36.89514 6.185791,35.400146 6.185791,35.400146 C5.7574463,35.08557 5.5424805,34.56201 5.624878,34.03369 C5.624878,34.03369 6.0163574,31.522339 6.0163574,31.522339 C6.1414795,30.719604 5.9796143,29.895264 5.560547,29.201416 C5.560547,29.201416 4.2470703,27.026733 4.2470703,27.026733 C3.972168,26.571533 3.972168,26.006226 4.2470703,25.55127 C4.2470703,25.55127 5.560791,23.376099 5.560791,23.376099 C5.9797363,22.682495 6.1417236,21.858398 6.0166016,21.055786 C6.0166016,21.055786 5.625122,18.543823 5.625122,18.543823 C5.5428467,18.015137 5.7579346,17.491821 6.1862793,17.177246 C6.1862793,17.177246 8.222656,15.682251 8.222656,15.682251 C8.87439,15.203369 9.337769,14.504395 9.527466,13.713379 C9.527466,13.713379 10.120361,11.240112 10.120361,11.240112 C10.244751,10.721558 10.640991,10.321533 11.154785,10.195923 C11.154785,10.195923 13.60498,9.597534 13.60498,9.597534 C14.38855,9.40625 15.081299,8.937866 15.555298,8.280273 C15.555298,8.280273 17.03601,6.2250977 17.03601,6.2250977 C17.347656,5.7927246 17.866089,5.5753174 18.389648,5.6588135 C18.389648,5.6588135 20.877441,6.053955 20.877441,6.053955 C21.672852,6.18042 22.489502,6.01709 23.176758,5.593628 C23.176758,5.593628 25.33081,4.2678223 25.33081,4.2678223 C25.781616,3.9902344 26.341919,3.9902344 26.79248,4.2678223 C26.79248,4.2678223 28.947021,5.59375 28.947021,5.59375 C29.634277,6.017212 30.45105,6.180664 31.246094,6.054077 C31.246094,6.054077 33.73462,5.6590576 33.73462,5.6590576 C34.257935,5.576172 34.77661,5.7929688 35.088135,6.225342 C35.088135,6.225342 36.569214,8.280884 36.569214,8.280884 C37.043457,8.938965 37.736084,9.406616 38.51953,9.5979 C38.51953,9.5979 40.969604,10.196777 40.969604,10.196777 C41.4834,10.322144 41.87964,10.722412 42.00403,11.240845 C42.00403,11.240845 42.596924,13.713989 42.596924,13.713989 C42.7865,14.505127 43.25,15.204468 43.901978,15.683105 C43.901978,15.683105 45.937622,17.177856 45.937622,17.177856 C46.36609,17.49231 46.581055,18.01587 46.498657,18.544556 C46.498657,18.544556 46.107178,21.055786 46.107178,21.055786 C45.982056,21.858398 46.1438,22.682495 46.56299,23.376587 C46.56299,23.376587 47.876465,25.55127 47.876465,25.55127 C48.15149,26.00647 48.15149,26.571777 47.876465,27.026978 ZM37.74536,23.153076 C37.52539,22.469604 36.94934,21.992065 36.241943,21.907349 C36.241943,21.907349 30.234009,21.187988 30.234009,21.187988 C30.234009,21.187988 27.699951,15.642456 27.699951,15.642456 C27.401611,14.989502 26.773926,14.583984 26.061646,14.583984 C25.349487,14.583984 24.721558,14.989502 24.423218,15.642456 C24.423218,15.642456 21.889282,21.188232 21.889282,21.188232 C21.889282,21.188232 15.881226,21.907349 15.881226,21.907349 C15.17395,21.992065 14.597778,22.469604 14.37793,23.153076 C14.157837,23.83667 14.345947,24.564941 14.868652,25.052734 C14.868652,25.052734 19.310425,29.199463 19.310425,29.199463 C19.310425,29.199463 18.13147,35.18994 18.13147,35.18994 C17.992798,35.894897 18.264404,36.59546 18.84082,37.018066 C19.158691,37.2511 19.527588,37.36902 19.898804,37.36902 C20.200562,37.36902 20.503662,37.291138 20.782227,37.13379 C20.782227,37.13379 26.061523,34.15088 26.061523,34.15088 C26.061523,34.15088 31.340698,37.13379 31.340698,37.13379 C31.96228,37.484985 32.706055,37.44055 33.28247,37.01819 C33.858765,36.59546 34.13037,35.894897 33.991577,35.18994 C33.991577,35.18994 32.8125,29.199463 32.8125,29.199463 C32.8125,29.199463 37.254272,25.052979 37.254272,25.052979 C37.777344,24.564941 37.965454,23.836914 37.74536,23.153076 ZM31.04663,28.10254 C30.791626,28.340698 30.677612,28.695557 30.745117,29.039062 C30.745117,29.039062 31.95166,35.1687 31.95166,35.1687 C31.95166,35.1687 26.549194,32.116455 26.549194,32.116455 C26.397705,32.030884 26.229614,31.988037 26.061523,31.988037 C25.89331,31.988037 25.725464,32.030884 25.57373,32.116455 C25.57373,32.116455 20.171387,35.1687 20.171387,35.1687 C20.171387,35.1687 21.37793,29.039062 21.37793,29.039062 C21.445679,28.695068 21.33142,28.340698 21.076538,28.10254 C21.076538,28.10254 16.531006,23.859253 16.531006,23.859253 C16.531006,23.859253 22.679443,23.123413 22.679443,23.123413 C23.02417,23.082275 23.32312,22.863037 23.468506,22.544678 C23.468506,22.544678 26.061646,16.869751 26.061646,16.869751 C26.061646,16.869751 28.654663,22.544678 28.654663,22.544678 C28.80017,22.863037 29.098877,23.082275 29.443848,23.123413 C29.443848,23.123413 35.59192,23.859253 35.59192,23.859253 C35.59192,23.859253 31.04663,28.10254 31.04663,28.10254 Z"/>
</svg>