<svg xmlns="http://www.w3.org/2000/svg"
 xmlns:xlink="http://www.w3.org/1999/xlink"
 width="67px" height="60px"  viewBox="0 0 67 60">
<path fill-rule="evenodd"  fill="#243f4d"
 d="M62.635315,1.9998779 C62.635315,1.9998779 5.3645935,1.9998779 5.3645935,1.9998779 C3.5092773,1.9998779 1.999939,3.5057373 1.999939,5.3568115 C1.999939,5.3568115 1.999939,46.49939 1.999939,46.49939 C1.999939,48.350586 3.5092773,49.856445 5.3645935,49.856445 C5.3645935,49.856445 27.056427,49.856445 27.056427,49.856445 C27.056427,49.856445 26.179443,56.856445 26.179443,56.856445 C26.179443,56.856445 22.545837,56.856445 22.545837,56.856445 C21.95282,56.856445 21.471924,57.336304 21.471924,57.928223 C21.471924,58.519897 21.952698,58.999634 22.545837,58.999634 C22.545837,58.999634 45.45404,58.999634 45.45404,58.999634 C46.04712,58.999634 46.527954,58.519897 46.527954,57.928223 C46.527954,57.336426 46.04718,56.856445 45.45404,56.856445 C45.45404,56.856445 41.820435,56.856445 41.820435,56.856445 C41.820435,56.856445 40.94348,49.856445 40.94348,49.856445 C40.94348,49.856445 62.635315,49.856445 62.635315,49.856445 C64.4906,49.856445 66.0,48.350586 66.0,46.49939 C66.0,46.49939 66.0,5.3568115 66.0,5.3568115 C66.0,3.5057373 64.4906,1.9998779 62.635315,1.9998779 ZM28.343658,56.85669 C28.343658,56.85669 29.220734,49.856934 29.220734,49.856934 C29.220734,49.856934 38.779053,49.856934 38.779053,49.856934 C38.779053,49.856934 39.656006,56.85669 39.656006,56.85669 C39.656006,56.85669 28.343658,56.85669 28.343658,56.85669 ZM63.852295,46.49939 C63.852295,47.168945 63.30652,47.713745 62.635315,47.713745 C62.635315,47.713745 5.3645935,47.713745 5.3645935,47.713745 C4.6934204,47.713745 4.147522,47.168945 4.147522,46.49939 C4.147522,46.49939 4.147522,5.3568115 4.147522,5.3568115 C4.147522,4.687134 4.6934204,4.142334 5.3645935,4.142334 C5.3645935,4.142334 62.635315,4.142334 62.635315,4.142334 C63.30652,4.142334 63.852295,4.687134 63.852295,5.3568115 C63.852295,5.3568115 63.852295,46.49939 63.852295,46.49939 C63.852295,46.49939 63.852295,46.49939 63.852295,46.49939 ZM52.3266,6.571167 C52.3266,6.571167 7.655487,6.571167 7.655487,6.571167 C7.062439,6.571167 6.5815735,7.0509033 6.5815735,7.642578 C6.5815735,7.642578 6.5815735,43.070923 6.5815735,43.070923 C6.5815735,43.662598 7.062317,44.142456 7.655487,44.142456 C7.655487,44.142456 11.092041,44.142456 11.092041,44.142456 C11.685059,44.142456 12.165955,43.66284 12.165955,43.070923 C12.165955,42.479614 11.685303,41.999878 11.092041,41.999878 C11.092041,41.999878 8.7291565,41.999878 8.7291565,41.999878 C8.7291565,41.999878 8.7291565,8.713623 8.7291565,8.713623 C8.7291565,8.713623 52.3266,8.713623 52.3266,8.713623 C52.919617,8.713623 53.400513,8.233887 53.400513,7.642334 C53.400513,7.0509033 52.919617,6.571167 52.3266,6.571167 ZM60.34442,6.571167 C60.34442,6.571167 56.908203,6.571167 56.908203,6.571167 C56.315186,6.571167 55.83429,7.0509033 55.83429,7.642578 C55.83429,8.233887 56.315063,8.714111 56.908203,8.714111 C56.908203,8.714111 59.27063,8.714111 59.27063,8.714111 C59.27063,8.714111 59.27063,41.999878 59.27063,41.999878 C59.27063,41.999878 15.673096,41.999878 15.673096,41.999878 C15.080078,41.999878 14.599182,42.479248 14.599182,43.070923 C14.599182,43.662598 15.079956,44.142456 15.673096,44.142456 C15.673096,44.142456 60.3443,44.142456 60.3443,44.142456 C60.937317,44.142456 61.418213,43.66284 61.418213,43.070923 C61.418213,43.070923 61.418213,7.642578 61.418213,7.642578 C61.418335,7.0509033 60.93744,6.571167 60.34442,6.571167 ZM53.471924,12.285156 C51.6167,12.285156 50.10736,13.791504 50.10736,15.642578 C50.10736,16.212158 50.250732,16.748535 50.50238,17.219116 C50.50238,17.219116 41.89862,26.308716 41.89862,26.308716 C41.46991,26.110962 40.993042,25.99939 40.49054,25.99939 C39.59491,25.99939 38.78067,26.351196 38.177338,26.922485 C38.177338,26.922485 30.829407,23.041016 30.829407,23.041016 C30.858154,22.864502 30.87384,22.68396 30.87384,22.499634 C30.87384,20.64856 29.364471,19.142456 27.509155,19.142456 C25.65393,19.142456 24.144592,20.64856 24.144592,22.499634 C24.144592,23.016968 24.262817,23.508057 24.47348,23.94629 C24.47348,23.94629 16.067108,32.08728 16.067108,32.08728 C15.605469,31.84961 15.0824585,31.713867 14.528015,31.713867 C12.672668,31.713867 11.16333,33.21985 11.16333,35.070923 C11.16333,36.92224 12.672668,38.428345 14.528015,38.428345 C16.38321,38.428345 17.892578,36.92224 17.892578,35.070923 C17.892578,34.553345 17.774353,34.062622 17.56366,33.62451 C17.56366,33.62451 25.970032,25.483276 25.970032,25.483276 C26.431702,25.720947 26.954803,25.856812 27.509155,25.856812 C28.404755,25.856812 29.219116,25.505127 29.822449,24.933716 C29.822449,24.933716 37.17035,28.814941 37.17035,28.814941 C37.14154,28.9917 37.125977,29.172363 37.125977,29.35669 C37.125977,31.207764 38.635315,32.713623 40.49054,32.713623 C42.345825,32.713623 43.855194,31.207764 43.855194,29.35669 C43.855194,28.787231 43.711792,28.250366 43.45993,27.780151 C43.45993,27.780151 52.063843,18.690308 52.063843,18.690308 C52.49243,18.888062 52.9693,18.999634 53.4718,18.999634 C55.327087,18.999634 56.836487,17.493774 56.836487,15.642578 C56.836487,13.791504 55.32733,12.285156 53.471924,12.285156 ZM14.528015,36.2854 C13.856812,36.2854 13.310913,35.7406 13.310913,35.070923 C13.310913,34.40149 13.856812,33.856934 14.528015,33.856934 C15.199097,33.856934 15.744965,34.40149 15.744965,35.070923 C15.744965,35.7406 15.198975,36.2854 14.528015,36.2854 ZM27.509277,23.713867 C26.838196,23.713867 26.292297,23.169312 26.292297,22.499634 C26.292297,21.8302 26.838074,21.285645 27.509277,21.285645 C28.18045,21.285645 28.726349,21.8302 28.726349,22.499634 C28.726349,23.169312 28.18045,23.713867 27.509277,23.713867 ZM40.49054,30.571167 C39.819458,30.571167 39.27356,30.026367 39.27356,29.356934 C39.27356,28.687134 39.819458,28.142334 40.49054,28.142334 C41.161713,28.142334 41.70761,28.687134 41.70761,29.356934 C41.70761,30.026123 41.161713,30.571167 40.49054,30.571167 ZM53.471924,16.85669 C52.800842,16.85669 52.254944,16.312134 52.254944,15.642578 C52.254944,14.972656 52.800842,14.428101 53.471924,14.428101 C54.143066,14.428101 54.688965,14.972656 54.688965,15.642578 C54.688965,16.312134 54.143066,16.85669 53.471924,16.85669 ZM53.471924,21.427979 C52.878967,21.427979 52.39807,21.907715 52.39807,22.499634 C52.39807,22.499634 52.39807,38.499634 52.39807,38.499634 C52.39807,39.091187 52.878845,39.570923 53.471924,39.570923 C54.06494,39.570923 54.545837,39.09143 54.545837,38.499634 C54.545837,38.499634 54.545837,22.499634 54.545837,22.499634 C54.545837,21.907715 54.065063,21.427979 53.471924,21.427979 ZM27.509277,28.2854 C26.916351,28.2854 26.435455,28.764893 26.435455,29.356934 C26.435455,29.356934 26.435455,38.499634 26.435455,38.499634 C26.435455,39.09143 26.91623,39.571167 27.509277,39.571167 C28.102295,39.571167 28.58319,39.09143 28.58319,38.499634 C28.58319,38.499634 28.58319,29.356934 28.58319,29.356934 C28.58319,28.764893 28.102295,28.2854 27.509277,28.2854 ZM40.49054,35.142456 C39.897614,35.142456 39.416718,35.622192 39.416718,36.21411 C39.416718,36.21411 39.416718,38.499634 39.416718,38.499634 C39.416718,39.09143 39.89749,39.571167 40.49054,39.571167 C41.08368,39.571167 41.564453,39.09143 41.564453,38.499634 C41.564453,38.499634 41.564453,36.21411 41.564453,36.21411 C41.564453,35.622192 41.083557,35.142456 40.49054,35.142456 Z"/>
</svg>