<svg xmlns="http://www.w3.org/2000/svg"
 xmlns:xlink="http://www.w3.org/1999/xlink"
 width="70px" height="67px"  viewBox="0 0 70 67">
<path fill-rule="evenodd"  fill="#243f4d"
 d="M59.05664,55.461304 C58.865234,54.08484 58.05945,52.907837 56.845337,52.231934 C56.845337,52.231934 45.257202,45.781616 45.257202,45.781616 C43.4834,44.79431 41.23938,45.099365 39.80017,46.523438 C39.80017,46.523438 35.730957,50.550415 35.730957,50.550415 C34.89734,51.375122 33.562866,51.477783 32.62622,50.789307 C29.81482,48.722046 27.067017,46.365723 24.459229,43.785034 C21.85144,41.204468 19.46997,38.484985 17.38086,35.703247 C16.685059,34.77649 16.789062,33.45569 17.622437,32.63037 C17.622437,32.63037 21.691772,28.604126 21.691772,28.604126 C23.130981,27.179565 23.439331,24.959106 22.441406,23.203857 C22.441406,23.203857 15.923096,11.736694 15.923096,11.736694 C15.240356,10.534912 14.050903,9.737793 12.659668,9.548828 C11.202026,9.350342 9.758179,9.838623 8.69812,10.887695 C8.69812,10.887695 4.406128,15.134766 4.406128,15.134766 C1.3741455,18.135376 1.2147217,23.506836 3.9572754,30.260376 C6.5808105,36.72107 11.572876,43.789185 18.013916,50.162964 C24.454956,56.53711 31.597656,61.47705 38.12622,64.07312 C41.35901,65.358765 44.278076,65.99963 46.777832,65.99963 C49.555298,65.99963 51.815186,65.207886 53.411133,63.628662 C53.411133,63.628662 57.703003,59.381714 57.703003,59.381714 C58.763428,58.332764 59.25659,56.903687 59.05664,55.461304 ZM56.168457,57.86328 C56.168457,57.86328 55.418335,58.605347 55.418335,58.605347 C55.418335,58.605347 45.539185,53.272583 45.539185,53.272583 C45.01294,52.98877 44.35388,53.180664 44.067017,53.701416 C43.779907,54.22229 43.973877,54.874023 44.500122,55.15808 C44.500122,55.15808 53.818726,60.187866 53.818726,60.187866 C53.818726,60.187866 51.876343,62.11035 51.876343,62.11035 C49.53235,64.42981 44.81543,64.41858 38.93518,62.080322 C32.671997,59.589966 25.786987,54.81848 19.548218,48.64453 C13.309814,42.470825 8.487671,35.657593 5.9709473,29.459717 C3.6079102,23.640747 3.5969238,18.9729 5.940796,16.653442 C5.940796,16.653442 7.8828125,14.731445 7.8828125,14.731445 C7.8828125,14.731445 8.921753,16.615845 8.921753,16.615845 C9.118652,16.973145 9.490967,17.175903 9.875244,17.175903 C10.050781,17.175903 10.228882,17.133667 10.393799,17.044678 C10.919922,16.760498 11.113892,16.108154 10.826904,15.587524 C10.826904,15.587524 9.482788,13.1484375 9.482788,13.1484375 C9.482788,13.1484375 10.232544,12.40686 10.232544,12.40686 C10.725586,11.919067 11.365601,11.653809 12.028198,11.653809 C12.1397705,11.653809 12.252075,11.661377 12.36438,11.676514 C13.076782,11.773315 13.684692,12.179077 14.031616,12.789551 C14.031616,12.789551 20.549805,24.256836 20.549805,24.256836 C21.072388,25.17627 20.91101,26.339355 20.157104,27.085327 C20.157104,27.085327 18.220947,29.001709 18.220947,29.001709 C18.220947,29.001709 13.139526,19.782715 13.139526,19.782715 C12.852539,19.26233 12.193359,19.070312 11.667236,19.354126 C11.141113,19.638306 10.947144,20.290405 11.234131,20.811035 C11.234131,20.811035 16.621338,30.584229 16.621338,30.584229 C16.621338,30.584229 16.088013,31.11206 16.088013,31.11206 C14.4991455,32.684326 14.306152,35.208862 15.639038,36.983765 C17.791016,39.84961 20.242188,42.648926 22.92456,45.303345 C25.607056,47.958008 28.435791,50.383667 31.331787,52.513306 C33.12561,53.832153 35.67627,53.64099 37.265625,52.068604 C37.265625,52.068604 37.79883,51.54077 37.79883,51.54077 C37.79883,51.54077 40.263184,52.87097 40.263184,52.87097 C40.4281,52.960205 40.60608,53.002197 40.781494,53.002197 C41.16577,53.002197 41.538086,52.799927 41.73523,52.442383 C42.022217,51.921753 41.82837,51.26953 41.302124,50.985718 C41.302124,50.985718 39.398193,49.957764 39.398193,49.957764 C39.398193,49.957764 41.334473,48.04187 41.334473,48.04187 C42.08838,47.2959 43.263794,47.13623 44.193115,47.65332 C44.193115,47.65332 55.78125,54.103394 55.78125,54.103394 C56.398315,54.446777 56.80835,55.048096 56.90625,55.753418 C57.013306,56.524292 56.744385,57.293213 56.168457,57.86328 ZM54.025146,29.489258 C54.025146,29.489258 52.79541,29.489258 52.79541,29.489258 C52.79541,29.489258 52.79541,20.254395 52.79541,20.254395 C52.79541,19.661377 52.30957,19.180542 51.710205,19.180542 C51.110962,19.180542 50.625,19.661377 50.625,20.254395 C50.625,20.254395 50.625,29.489258 50.625,29.489258 C50.625,29.489258 44.96057,29.489258 44.96057,29.489258 C44.96057,29.489258 46.982056,20.487305 46.982056,20.487305 C47.11194,19.90857 46.743164,19.334473 46.15808,19.206177 C45.572876,19.077515 44.99341,19.442627 44.863403,20.021362 C44.863403,20.021362 42.54834,30.3302 42.54834,30.3302 C42.47693,30.648071 42.555298,30.98059 42.761353,31.234985 C42.967285,31.489258 43.278564,31.636963 43.607788,31.636963 C43.607788,31.636963 50.625,31.636963 50.625,31.636963 C50.625,31.636963 50.625,35.14453 50.625,35.14453 C50.625,35.737427 51.110718,36.218506 51.710083,36.218506 C52.309326,36.218506 52.795166,35.73755 52.795166,35.14453 C52.795166,35.14453 52.795166,31.636963 52.795166,31.636963 C52.795166,31.636963 54.025024,31.636963 54.025024,31.636963 C54.624268,31.636963 55.11023,31.156006 55.11023,30.562744 C55.11023,29.96997 54.62439,29.489258 54.025146,29.489258 ZM40.135498,34.070557 C40.135498,34.070557 32.149292,34.070557 32.149292,34.070557 C32.621338,32.840454 33.957153,32.05835 35.88391,31.017944 C38.26172,29.734009 41.220703,28.135742 41.220703,24.508667 C41.220703,21.5708 38.656982,19.180542 35.505615,19.180542 C32.35437,19.180542 29.790527,21.570557 29.790527,24.508667 C29.790527,25.101685 30.27649,25.58252 30.875732,25.58252 C31.474976,25.58252 31.960938,25.101685 31.960938,24.508667 C31.960938,22.75476 33.551147,21.328125 35.505737,21.328125 C37.460083,21.328125 39.050415,22.75476 39.050415,24.508667 C39.05017,26.702759 37.461304,27.719482 34.844116,29.13269 C32.475464,30.411743 29.790405,31.861694 29.790405,35.14453 C29.790405,35.737427 30.276367,36.21826 30.87561,36.21826 C30.87561,36.21826 40.135376,36.21826 40.135376,36.21826 C40.73462,36.21826 41.22058,35.737427 41.22058,35.14453 C41.22058,34.55127 40.73474,34.070557 40.135498,34.070557 ZM63.072144,46.690796 C63.072144,46.690796 60.958862,47.10913 60.958862,47.10913 C66.09424,42.173462 68.99988,35.423218 68.99988,28.272339 C68.99988,13.785522 57.089966,1.9995117 42.45044,1.9995117 C33.82263,1.9995117 25.70227,6.1726074 20.728516,13.162598 C20.383423,13.647217 20.500977,14.316895 20.990967,14.658813 C21.480835,15.0 22.157715,14.883667 22.50293,14.398926 C27.070923,7.9796143 34.527954,4.1470947 42.45056,4.1470947 C55.89319,4.1470947 66.829834,14.969482 66.829834,28.272339 C66.829834,34.934692 64.08118,41.217407 59.235596,45.766357 C59.235596,45.766357 59.719482,43.372925 59.719482,43.372925 C59.836914,42.79126 59.45581,42.225464 58.868042,42.10901 C58.280518,41.992798 57.70862,42.37024 57.591187,42.95166 C57.591187,42.95166 56.433716,48.67871 56.433716,48.67871 C56.36255,49.030884 56.473877,49.394653 56.73047,49.648926 C56.935913,49.851807 57.213013,49.96338 57.49768,49.96338 C57.56848,49.96338 57.63977,49.956055 57.710693,49.942383 C57.710693,49.942383 63.498047,48.796875 63.498047,48.796875 C64.08569,48.680298 64.46692,48.114746 64.349365,47.533325 C64.231445,46.951782 63.659668,46.57483 63.072144,46.690796 ZM42.45044,6.581299 C41.851196,6.581299 41.365356,7.0618896 41.365356,7.6550293 C41.365356,7.6550293 41.365356,9.945923 41.365356,9.945923 C41.365356,10.538696 41.851074,11.019531 42.45044,11.019531 C43.049683,11.019531 43.535645,10.538696 43.535645,9.945923 C43.535645,9.945923 43.535645,7.6550293 43.535645,7.6550293 C43.5354,7.0618896 43.049927,6.581299 42.45044,6.581299 ZM63.284912,27.198364 C63.284912,27.198364 60.96997,27.198364 60.96997,27.198364 C60.370728,27.198364 59.884766,27.679077 59.884766,28.272339 C59.884766,28.865112 60.370605,29.34607 60.96997,29.34607 C60.96997,29.34607 63.284912,29.34607 63.284912,29.34607 C63.884155,29.34607 64.37012,28.865112 64.37012,28.272339 C64.37012,27.679077 63.884155,27.198364 63.284912,27.198364 ZM26.954712,18.178955 C26.954712,18.178955 24.949951,17.03357 24.949951,17.03357 C24.430786,16.737183 23.767212,16.912842 23.467651,17.426758 C23.16809,17.940308 23.345825,18.596802 23.864746,18.89331 C23.864746,18.89331 25.869385,20.038574 25.869385,20.038574 C26.040283,20.136719 26.226929,20.18274 26.41101,20.18274 C26.78601,20.18274 27.150757,19.990112 27.351807,19.645508 C27.651367,19.132202 27.47351,18.475464 26.954712,18.178955 ZM61.036255,37.650635 C61.036255,37.650635 59.031494,36.50537 59.031494,36.50537 C58.51245,36.20862 57.848755,36.384766 57.549194,36.898193 C57.249634,37.4115 57.427246,38.068726 57.94629,38.36499 C57.94629,38.36499 59.950928,39.510498 59.950928,39.510498 C60.121826,39.608154 60.30847,39.65442 60.492554,39.65442 C60.867554,39.65442 61.2323,39.461914 61.43335,39.11743 C61.733032,38.60388 61.555176,37.947144 61.036255,37.650635 ZM53.41028,9.487305 C52.891357,9.190796 52.22766,9.366699 51.9281,9.880371 C51.9281,9.880371 50.77063,11.864014 50.77063,11.864014 C50.47107,12.377808 50.648926,13.034546 51.167725,13.331055 C51.338623,13.428711 51.525024,13.474976 51.70923,13.474976 C52.08435,13.474976 52.448975,13.282349 52.650024,12.937744 C52.650024,12.937744 53.807495,10.953857 53.807495,10.953857 C54.107178,10.440552 53.92932,9.783813 53.41028,9.487305 ZM33.733154,43.213135 C33.21411,42.916626 32.55066,43.092896 32.250854,43.6062 C32.250854,43.6062 31.093384,45.589844 31.093384,45.589844 C30.793823,46.10376 30.97168,46.760376 31.490479,47.05664 C31.661377,47.154297 31.848022,47.200806 32.032104,47.200806 C32.407104,47.200806 32.771973,47.00818 32.9729,46.66382 C32.9729,46.66382 34.13037,44.680176 34.13037,44.680176 C34.42993,44.16638 34.252197,43.509888 33.733154,43.213135 ZM61.43347,17.426758 C61.13379,16.912842 60.46985,16.737183 59.95105,17.03357 C59.95105,17.03357 57.94641,18.1792 57.94641,18.1792 C57.42737,18.475708 57.249634,19.132446 57.549316,19.645752 C57.750244,19.990479 58.115112,20.182983 58.48999,20.182983 C58.674194,20.182983 58.860718,20.13684 59.031494,20.039062 C59.031494,20.039062 61.036377,18.893555 61.036377,18.893555 C61.555176,18.596802 61.733032,17.940308 61.43347,17.426758 ZM27.351807,36.898438 C27.052002,36.384766 26.388428,36.20862 25.869385,36.50537 C25.869385,36.50537 23.864746,37.651123 23.864746,37.651123 C23.345703,37.947388 23.167969,38.60437 23.467651,39.117798 C23.66858,39.462402 24.033325,39.654785 24.408325,39.654785 C24.59253,39.654785 24.779053,39.60852 24.949951,39.510864 C24.949951,39.510864 26.954712,38.36548 26.954712,38.36548 C27.47351,38.068726 27.651367,37.411743 27.351807,36.898438 ZM34.13037,11.864502 C34.13037,11.864502 32.973022,9.880371 32.973022,9.880371 C32.67334,9.366699 32.009644,9.190796 31.4906,9.487549 C30.97168,9.783813 30.793823,10.440552 31.093628,10.954102 C31.093628,10.954102 32.2511,12.938232 32.2511,12.938232 C32.45215,13.282593 32.817017,13.47522 33.191772,13.47522 C33.375977,13.47522 33.5625,13.428955 33.73352,13.331299 C34.252197,13.034546 34.42993,12.377808 34.13037,11.864502 ZM53.807373,45.589844 C53.807373,45.589844 52.650024,43.6062 52.650024,43.6062 C52.35034,43.092773 51.686646,42.916626 51.167725,43.213135 C50.648804,43.509888 50.470947,44.16638 50.77063,44.680176 C50.77063,44.680176 51.9281,46.664062 51.9281,46.664062 C52.12903,47.008423 52.493774,47.200928 52.868774,47.200928 C53.05298,47.200928 53.239502,47.154785 53.41028,47.05713 C53.9292,46.760376 54.107056,46.10376 53.807373,45.589844 Z"/>
</svg>