<svg xmlns="http://www.w3.org/2000/svg"
 width="35px" height="48px"  viewBox="0 0 35 48">
<path fill-rule="evenodd"  fill="#a3bbc8"
 d="M16.596558,45.809326 C16.596558,45.809326 10.013062,42.892212 10.013062,42.892212 C10.013062,42.892212 4.3393555,45.402283 4.3393555,45.402283 C3.6968994,45.68701 2.965149,45.54706 2.4745483,45.046753 C1.9849243,44.547424 1.8616943,43.81659 2.1621094,43.18463 C2.1621094,43.18463 7.156433,32.669067 7.156433,32.669067 C7.2615967,32.44574 7.439087,32.266052 7.6605225,32.156006 C8.204834,31.885132 8.869019,32.104065 9.141968,32.646545 C9.307434,32.9776 9.290161,33.3526 9.128235,33.655518 C9.128235,33.655518 4.784729,42.800354 4.784729,42.800354 C4.784729,42.800354 9.104858,40.886414 9.104858,40.886414 C9.679138,40.631287 10.337891,40.632385 10.911011,40.88739 C10.911011,40.88739 17.493774,43.803406 17.493774,43.803406 C17.493774,43.803406 17.500732,43.803406 17.503601,43.803406 C17.50476,43.803406 17.505432,43.803406 17.505432,43.803406 C17.505432,43.803406 24.089905,40.886414 24.089905,40.886414 C24.661316,40.631287 25.319214,40.631287 25.894287,40.886414 C25.894287,40.886414 30.214417,42.800354 30.214417,42.800354 C30.214417,42.800354 25.87207,33.65503 25.87207,33.65503 C25.65326,33.248047 25.708984,32.73065 26.046387,32.37964 C26.430786,31.978088 27.04718,31.930481 27.487305,32.244507 C27.637695,32.351807 27.76184,32.496582 27.843811,32.66809 C27.843811,32.66809 32.83777,43.18579 32.83777,43.18579 C33.13739,43.81659 33.01526,44.546448 32.52466,45.046753 C32.035095,45.54706 31.303345,45.68701 30.661682,45.402283 C30.661682,45.402283 24.996948,42.892212 24.996948,42.892212 C24.996948,42.892212 18.402771,45.809326 18.402771,45.809326 C18.115723,45.93701 17.807861,46.000122 17.500061,46.000122 C17.191162,46.000122 16.883423,45.93701 16.596558,45.809326 ZM14.64978,38.209656 C14.64978,38.209656 5.102417,22.283081 5.102417,22.283081 C5.0907593,22.262634 5.0792236,22.241577 5.0685425,22.22113 C4.055847,20.252869 3.5274048,18.036865 3.5401,15.810364 C3.5627441,12.167847 5.0043335,8.726624 7.600769,6.1209717 C10.197327,3.5147095 13.642822,2.0523682 17.302063,2.0007324 C21.068665,1.9494019 24.620789,3.3695679 27.300903,6.001587 C29.982117,8.63269 31.458984,12.146301 31.458984,15.89447 C31.458984,18.122559 30.945007,20.251282 29.93097,22.22113 C29.919983,22.241577 29.908325,22.262634 29.896606,22.283081 C29.896606,22.283081 20.349365,38.209656 20.349365,38.209656 C19.74469,39.21869 18.680176,39.8208 17.500061,39.8208 C16.320068,39.8208 15.254517,39.21869 14.64978,38.209656 ZM17.332764,4.197937 C10.982422,4.28479 5.784729,9.500793 5.7469482,15.823242 C5.7352905,17.714111 6.162842,19.518616 7.015869,21.188965 C7.015869,21.188965 16.545288,37.084534 16.545288,37.084534 C16.836853,37.571655 17.31018,37.624756 17.500061,37.624756 C17.690002,37.624756 18.162659,37.571655 18.454956,37.084534 C18.454956,37.084534 27.983154,21.188965 27.983154,21.188965 C28.825806,19.54004 29.253235,17.758667 29.253235,15.89447 C29.253235,12.738647 28.009277,9.781006 25.752014,7.564514 C23.536804,5.3901367 20.613403,4.196472 17.505066,4.196472 C17.447876,4.196472 17.39032,4.1969604 17.332764,4.197937 ZM12.449341,15.89447 C12.449341,13.122192 14.714783,10.867554 17.500061,10.867554 C20.284729,10.867554 22.550903,13.122192 22.550903,15.89447 C22.550903,18.667114 20.284729,20.921265 17.500061,20.921265 C14.714783,20.921265 12.449341,18.667114 12.449341,15.89447 ZM14.655029,15.89447 C14.655029,17.45575 15.931519,18.725891 17.500061,18.725891 C19.068787,18.725891 20.343994,17.45575 20.343994,15.89447 C20.343994,14.333679 19.068787,13.063599 17.500061,13.063599 C15.931519,13.063599 14.655029,14.333679 14.655029,15.89447 Z"/>
</svg>