<svg xmlns="http://www.w3.org/2000/svg"
 xmlns:xlink="http://www.w3.org/1999/xlink"
 width="26px" height="12px"  viewBox="0 0 26 12">
<path fill-rule="evenodd"  fill="#a3bbc8"
 d="M23.703857,4.526367 C23.703857,4.526367 23.711914,4.5285645 23.711914,4.5285645 C23.711914,4.5285645 6.7557373,4.5285645 6.7557373,4.5285645 C6.7557373,4.5285645 6.856201,1.6702881 6.856201,1.6702881 C6.9104004,1.6157227 6.9401855,1.5415039 6.9401855,1.4654541 C6.9401855,1.3880615 6.9104004,1.3150635 6.856201,1.2607422 C6.856201,1.2607422 6.6835938,1.0872803 6.6835938,1.0872803 C6.6293945,1.032959 6.557129,1.0031738 6.4799805,1.0031738 C6.402954,1.0031738 6.3305664,1.032959 6.276367,1.0869141 C6.276367,1.0869141 2.0839844,5.298218 2.0839844,5.298218 C2.029541,5.3529053 1.9997559,5.4262695 1.9998779,5.5026855 C1.9997559,5.5802 2.029541,5.653076 2.0839844,5.706665 C2.0839844,5.706665 6.276367,9.920044 6.276367,9.920044 C6.3305664,9.973389 6.402954,10.002686 6.4799805,10.002686 C6.557129,10.002686 6.6293945,9.973389 6.6835938,9.920044 C6.6835938,9.920044 6.856201,9.745728 6.856201,9.745728 C6.9104004,9.692261 6.9401855,9.619141 6.9401855,9.541748 C6.9401855,9.464844 6.9104004,9.395874 6.856201,9.342285 C6.856201,9.342285 6.743164,6.477783 6.743164,6.477783 C6.743164,6.477783 23.707764,6.477783 23.707764,6.477783 C23.866577,6.477783 24.0,6.340332 24.0,6.1813965 C24.0,6.1813965 24.0,4.8116455 24.0,4.8116455 C24.0,4.652832 23.86267,4.526367 23.703857,4.526367 Z"/>
</svg>