<svg xmlns="http://www.w3.org/2000/svg"
 xmlns:xlink="http://www.w3.org/1999/xlink"
 width="26px" height="12px"  viewBox="0 0 26 12">
<path fill-rule="evenodd"  fill="#a3bbc8"
 d="M2.2960205,7.4731445 C2.2960205,7.4731445 2.2879639,7.4709473 2.2879639,7.4709473 C2.2879639,7.4709473 19.24414,7.4709473 19.24414,7.4709473 C19.24414,7.4709473 19.143677,10.329346 19.143677,10.329346 C19.089478,10.383911 19.059692,10.458008 19.059692,10.534058 C19.059692,10.611694 19.089478,10.684448 19.143677,10.739014 C19.143677,10.739014 19.316284,10.912231 19.316284,10.912231 C19.370483,10.966797 19.442749,10.996338 19.519897,10.996338 C19.596924,10.996338 19.669312,10.966797 19.72351,10.912842 C19.72351,10.912842 23.915894,6.701294 23.915894,6.701294 C23.970337,6.6467285 24.000122,6.5734863 24.0,6.4969482 C24.000122,6.4195557 23.970337,6.3465576 23.915894,6.2929688 C23.915894,6.2929688 19.72351,2.079712 19.72351,2.079712 C19.669312,2.026123 19.596924,1.9968262 19.519897,1.9968262 C19.442749,1.9968262 19.370483,2.026123 19.316284,2.079712 C19.316284,2.079712 19.143677,2.2537842 19.143677,2.2537842 C19.089478,2.307495 19.059692,2.380371 19.059692,2.4580078 C19.059692,2.53479 19.089478,2.6038818 19.143677,2.6574707 C19.143677,2.6574707 19.256714,5.5218506 19.256714,5.5218506 C19.256714,5.5218506 2.2921143,5.5218506 2.2921143,5.5218506 C2.1333008,5.5218506 1.9998779,5.659424 1.9998779,5.818115 C1.9998779,5.818115 1.9998779,7.187866 1.9998779,7.187866 C1.9998779,7.3468018 2.137207,7.4731445 2.2960205,7.4731445 Z"/>
</svg>