<svg xmlns="http://www.w3.org/2000/svg"
 xmlns:xlink="http://www.w3.org/1999/xlink"
 width="26px" height="12px"  viewBox="0 0 26 12">
<path fill-rule="evenodd"  fill="#436372"
 d="M2.2960205,7.472412 C2.2960205,7.472412 2.2879028,7.470215 2.2879028,7.470215 C2.2879028,7.470215 19.24414,7.470215 19.24414,7.470215 C19.24414,7.470215 19.143677,10.328857 19.143677,10.328857 C19.089417,10.383057 19.059692,10.45752 19.059692,10.533691 C19.059692,10.611084 19.089417,10.684082 19.143677,10.738281 C19.143677,10.738281 19.316223,10.912109 19.316223,10.912109 C19.370483,10.966064 19.442688,10.99585 19.519836,10.99585 C19.596985,10.99585 19.669312,10.966064 19.72351,10.9123535 C19.72351,10.9123535 23.915833,6.7004395 23.915833,6.7004395 C23.970337,6.645996 24.000061,6.572754 23.999939,6.496338 C24.000061,6.4191895 23.970337,6.345459 23.915833,6.291992 C23.915833,6.291992 19.72351,2.0791016 19.72351,2.0791016 C19.669312,2.025879 19.596985,1.9960938 19.519836,1.9960938 C19.442688,1.9960938 19.370483,2.025879 19.316223,2.0791016 C19.316223,2.0791016 19.143677,2.2529297 19.143677,2.2529297 C19.089417,2.3068848 19.059692,2.3793945 19.059692,2.456787 C19.059692,2.5341797 19.089417,2.6030273 19.143677,2.65625 C19.143677,2.65625 19.256714,5.520996 19.256714,5.520996 C19.256714,5.520996 2.2921143,5.520996 2.2921143,5.520996 C2.1333008,5.520996 1.9998169,5.657959 1.9998169,5.817383 C1.9998169,5.817383 1.9998169,7.1867676 1.9998169,7.1867676 C1.9998169,7.3461914 2.137146,7.472412 2.2960205,7.472412 Z"/>
</svg>