<svg xmlns="http://www.w3.org/2000/svg"
 xmlns:xlink="http://www.w3.org/1999/xlink"
 width="17px" height="15px"  viewBox="0 0 17 15">
<path fill-rule="evenodd"  fill="#ffffff"
 d="M9.930878,13.00708 C10.083771,13.00708 10.236206,12.95459 10.356018,12.846069 C10.356018,12.846069 15.790283,7.933716 15.790283,7.933716 C15.796753,7.929077 15.802856,7.9226074 15.808777,7.916748 C15.820007,7.906006 15.830078,7.895508 15.840027,7.88501 C15.840027,7.88501 15.840027,7.883911 15.840027,7.883911 C15.840027,7.883911 15.840576,7.883911 15.840576,7.883911 C15.929626,7.7840576 15.977356,7.662964 15.985352,7.5404053 C15.988464,7.496216 15.986389,7.453369 15.979431,7.4101562 C15.960754,7.298706 15.908447,7.1918945 15.824036,7.1033936 C15.8133545,7.092407 15.802368,7.081909 15.7908325,7.0716553 C15.7908325,7.0716553 10.356018,2.159546 10.356018,2.159546 C10.1094055,1.9361572 9.71698,1.9453125 9.482056,2.182129 C9.247101,2.4188232 9.257629,2.791504 9.505737,3.0158691 C9.505737,3.0158691 13.8172,6.9125977 13.8172,6.9125977 C13.8172,6.9125977 1.6314087,6.9125977 1.6314087,6.9125977 C1.2903442,6.9125977 1.0136414,7.17688 1.0136414,7.5029297 C1.0136414,7.828003 1.2903442,8.092163 1.6314087,8.092163 C1.6314087,8.092163 13.8172,8.092163 13.8172,8.092163 C13.8172,8.092163 9.505737,11.98999 9.505737,11.98999 C9.257629,12.213379 9.247101,12.587036 9.482056,12.824097 C9.603821,12.945679 9.767334,13.00708 9.930878,13.00708 Z"/>
</svg>