<?xml version="1.0" encoding="UTF-8"?>
<svg xmlns="http://www.w3.org/2000/svg" fil="#436372" xmlns:xlink="http://www.w3.org/1999/xlink" width="14pt" height="14pt" viewBox="0 0 14 14" version="1.1">
<g id="surface1">
<path d="M 11.757812 0.941406 L 2.238281 0.941406 C 1.242188 0.941406 0.433594 1.753906 0.433594 2.75 L 0.433594 8.578125 C 0.433594 9.570312 1.238281 10.378906 2.230469 10.382812 L 2.230469 13.027344 L 6.027344 10.382812 L 11.757812 10.382812 C 12.753906 10.382812 13.5625 9.574219 13.5625 8.578125 L 13.5625 2.75 C 13.5625 1.753906 12.753906 0.941406 11.757812 0.941406 Z M 12.792969 8.578125 C 12.792969 9.144531 12.328125 9.613281 11.757812 9.613281 L 5.789062 9.613281 L 3 11.550781 L 3 9.613281 L 2.238281 9.613281 C 1.664062 9.613281 1.199219 9.144531 1.199219 8.578125 L 1.199219 2.75 C 1.199219 2.179688 1.664062 1.714844 2.238281 1.714844 L 11.757812 1.714844 C 12.328125 1.714844 12.792969 2.179688 12.792969 2.75 Z M 12.792969 8.578125 "/>
<path d="M 3.945312 3.664062 L 10.050781 3.664062 L 10.050781 4.433594 L 3.945312 4.433594 Z M 3.945312 3.664062 "/>
<path d="M 3.945312 5.304688 L 10.050781 5.304688 L 10.050781 6.074219 L 3.945312 6.074219 Z M 3.945312 5.304688 "/>
<path d="M 3.945312 6.945312 L 10.050781 6.945312 L 10.050781 7.714844 L 3.945312 7.714844 Z M 3.945312 6.945312 "/>
</g>
</svg>
