<svg xmlns="http://www.w3.org/2000/svg"
 width="40px" height="47px"  viewBox="0 0 40 47">
<path fill-rule="evenodd"
 d="M15.440308,40.92212 C15.440308,38.168335 17.710205,35.92737 20.499146,35.92737 C23.289429,35.92737 25.559204,38.168335 25.559204,40.92212 C25.559204,43.677246 23.289429,45.91693 20.499146,45.91693 C17.710205,45.91693 15.440308,43.67627 15.440308,40.92212 ZM17.414795,40.92212 C17.414795,42.60132 18.799072,43.96747 20.499146,43.96747 C22.200073,43.96747 23.584595,42.60132 23.584595,40.92212 C23.584595,39.243103 22.200073,37.87683 20.499146,37.87683 C18.799072,37.87683 17.414795,39.243103 17.414795,40.92212 ZM28.880981,29.585754 C28.880981,26.831116 31.150635,24.590942 33.940918,24.590942 C36.729736,24.590942 38.999756,26.831116 38.999756,29.585754 C38.999756,32.33972 36.729736,34.581177 33.940918,34.581177 C31.150635,34.581177 28.880981,32.33972 28.880981,29.585754 ZM30.85669,29.585754 C30.85669,31.265442 32.23999,32.631714 33.940918,32.631714 C35.64099,32.631714 37.02527,31.265442 37.02527,29.585754 C37.02527,27.906738 35.64099,26.540283 33.940918,26.540283 C32.23999,26.540283 30.85669,27.906738 30.85669,29.585754 ZM15.440308,29.585754 C15.440308,26.831116 17.710205,24.590942 20.499146,24.590942 C23.289429,24.590942 25.559204,26.831116 25.559204,29.585754 C25.559204,32.33972 23.289429,34.581177 20.499146,34.581177 C17.710205,34.581177 15.440308,32.33972 15.440308,29.585754 ZM17.414795,29.585754 C17.414795,31.265442 18.799072,32.631714 20.499146,32.631714 C22.200073,32.631714 23.584595,31.265442 23.584595,29.585754 C23.584595,27.906738 22.200073,26.540283 20.499146,26.540283 C18.799072,26.540283 17.414795,27.906738 17.414795,29.585754 ZM1.9998779,29.585754 C1.9998779,26.831116 4.2695312,24.590942 7.058838,24.590942 C9.848755,24.590942 12.118408,26.831116 12.118408,29.585754 C12.118408,32.33972 9.848755,34.581177 7.058838,34.581177 C4.268799,34.581177 1.9998779,32.33972 1.9998779,29.585754 ZM3.9744873,29.585754 C3.9744873,31.265442 5.357788,32.631714 7.058838,32.631714 C8.759766,32.631714 10.143066,31.265442 10.143066,29.585754 C10.143066,27.906738 8.759766,26.540283 7.058838,26.540283 C5.357788,26.540283 3.9744873,27.906738 3.9744873,29.585754 ZM28.880981,18.249023 C28.880981,15.495239 31.150635,13.254272 33.940918,13.254272 C36.729736,13.254272 38.999756,15.495239 38.999756,18.249023 C38.999756,21.003662 36.729736,23.244446 33.940918,23.244446 C31.150635,23.244446 28.880981,21.003662 28.880981,18.249023 ZM30.85669,18.249023 C30.85669,19.928894 32.23999,21.294067 33.940918,21.294067 C35.64099,21.294067 37.02527,19.928894 37.02527,18.249023 C37.02527,16.570007 35.64099,15.204041 33.940918,15.204041 C32.23999,15.204041 30.85669,16.570007 30.85669,18.249023 ZM15.440308,18.249023 C15.440308,15.495239 17.710205,13.254272 20.499146,13.254272 C23.289429,13.254272 25.559204,15.495239 25.559204,18.249023 C25.559204,21.003662 23.289429,23.244446 20.499146,23.244446 C17.710205,23.244446 15.440308,21.003662 15.440308,18.249023 ZM17.414795,18.249023 C17.414795,19.928894 18.799072,21.294067 20.499146,21.294067 C22.200073,21.294067 23.584595,19.928894 23.584595,18.249023 C23.584595,16.570007 22.200073,15.204041 20.499146,15.204041 C18.799072,15.204041 17.414795,16.570007 17.414795,18.249023 ZM1.9998779,18.249023 C1.9998779,15.495239 4.2695312,13.254272 7.058838,13.254272 C9.848755,13.254272 12.118408,15.495239 12.118408,18.249023 C12.118408,21.003662 9.848755,23.244446 7.058838,23.244446 C4.268799,23.244446 1.9998779,21.003662 1.9998779,18.249023 ZM3.9744873,18.249023 C3.9744873,19.928894 5.357788,21.294067 7.058838,21.294067 C8.759766,21.294067 10.143066,19.928894 10.143066,18.249023 C10.143066,16.570007 8.759766,15.204041 7.058838,15.204041 C5.357788,15.204041 3.9744873,16.570007 3.9744873,18.249023 ZM28.880981,6.913269 C28.880981,4.158325 31.150635,1.9178467 33.940918,1.9178467 C36.729736,1.9178467 38.999756,4.158325 38.999756,6.913269 C38.999756,9.667114 36.729736,11.908081 33.940918,11.908081 C31.150635,11.908081 28.880981,9.667114 28.880981,6.913269 ZM30.85669,6.913269 C30.85669,8.592285 32.23999,9.958618 33.940918,9.958618 C35.64099,9.958618 37.02527,8.592285 37.02527,6.913269 C37.02527,5.2335815 35.64099,3.8674927 33.940918,3.8674927 C32.23999,3.8674927 30.85669,5.2335815 30.85669,6.913269 ZM15.440308,6.913269 C15.440308,4.158325 17.710205,1.9178467 20.499146,1.9178467 C23.289429,1.9178467 25.559204,4.158325 25.559204,6.913269 C25.559204,9.667114 23.289429,11.908081 20.499146,11.908081 C17.710205,11.908081 15.440308,9.667114 15.440308,6.913269 ZM17.414795,6.913269 C17.414795,8.592285 18.799072,9.958618 20.499146,9.958618 C22.200073,9.958618 23.584595,8.592285 23.584595,6.913269 C23.584595,5.2335815 22.200073,3.8674927 20.499146,3.8674927 C18.799072,3.8674927 17.414795,5.2335815 17.414795,6.913269 ZM1.9998779,6.913269 C1.9998779,4.158325 4.2695312,1.9178467 7.058838,1.9178467 C9.848755,1.9178467 12.118408,4.158325 12.118408,6.913269 C12.118408,9.667114 9.848755,11.908081 7.058838,11.908081 C4.268799,11.908081 1.9998779,9.667114 1.9998779,6.913269 ZM3.9744873,6.913269 C3.9744873,8.592285 5.357788,9.958618 7.058838,9.958618 C8.759766,9.958618 10.143066,8.592285 10.143066,6.913269 C10.143066,5.2335815 8.759766,3.8674927 7.058838,3.8674927 C5.357788,3.8674927 3.9744873,5.2335815 3.9744873,6.913269 Z"/>
</svg>