<svg xmlns="http://www.w3.org/2000/svg"
 xmlns:xlink="http://www.w3.org/1999/xlink"
 width="21px" height="15px"  viewBox="0 0 21 15">
<path fill-rule="evenodd"  fill="#436372"
 d="M18.71399,13.9938965 C18.71399,13.9938965 3.2856445,13.9938965 3.2856445,13.9938965 C2.5767822,13.9938965 2.0,13.438721 2.0,12.756592 C2.0,12.756592 2.0,2.8581543 2.0,2.8581543 C2.0,2.1760254 2.5767822,1.6208496 3.2856445,1.6208496 C3.2856445,1.6208496 18.71399,1.6208496 18.71399,1.6208496 C19.422974,1.6208496 19.999756,2.1760254 19.999756,2.8581543 C19.999756,2.8581543 19.999756,12.756592 19.999756,12.756592 C19.999756,13.438721 19.422974,13.9938965 18.71399,13.9938965 ZM3.2856445,2.4458008 C3.0493164,2.4458008 2.8570557,2.6306152 2.8570557,2.8581543 C2.8570557,2.8581543 2.8570557,12.756592 2.8570557,12.756592 C2.8570557,12.984131 3.0493164,13.169189 3.2856445,13.169189 C3.2856445,13.169189 18.71399,13.169189 18.71399,13.169189 C18.950317,13.169189 19.142578,12.984131 19.142578,12.756592 C19.142578,12.756592 19.142578,2.8581543 19.142578,2.8581543 C19.142578,2.6306152 18.950317,2.4458008 18.71399,2.4458008 C18.71399,2.4458008 3.2856445,2.4458008 3.2856445,2.4458008 ZM10.999878,8.036865 C10.741455,8.036865 10.483154,7.9626465 10.262573,7.813965 C10.262573,7.813965 2.4805908,2.5717773 2.4805908,2.5717773 C2.2867432,2.4414062 2.239624,2.184082 2.3753662,1.9975586 C2.5109863,1.8110352 2.7783203,1.765625 2.972168,1.8959961 C2.972168,1.8959961 10.75415,7.1381836 10.75415,7.1381836 C10.901123,7.2373047 11.098633,7.2373047 11.245605,7.1381836 C11.245605,7.1381836 19.027588,1.8959961 19.027588,1.8959961 C19.221436,1.765625 19.48877,1.8110352 19.62439,1.9975586 C19.760132,2.184082 19.713013,2.4414062 19.519165,2.5717773 C19.519165,2.5717773 11.737183,7.813965 11.737183,7.813965 C11.516724,7.9626465 11.258179,8.036865 10.999878,8.036865 ZM19.32019,13.752441 C19.21045,13.752441 19.10083,13.712158 19.01709,13.631592 C19.01709,13.631592 12.404175,7.267578 12.404175,7.267578 C12.236938,7.1064453 12.236938,6.845215 12.404175,6.684082 C12.571533,6.5231934 12.843018,6.5231934 13.010254,6.684082 C13.010254,6.684082 19.623291,13.04834 19.623291,13.04834 C19.790527,13.209473 19.790527,13.470703 19.623291,13.631592 C19.53955,13.712158 19.429932,13.752441 19.32019,13.752441 ZM2.6795654,13.752441 C2.5698242,13.752441 2.460205,13.712158 2.376587,13.631592 C2.2091064,13.470703 2.2091064,13.209473 2.376587,13.04834 C2.376587,13.04834 8.98938,6.684082 8.98938,6.684082 C9.15686,6.5231934 9.428223,6.5231934 9.595459,6.684082 C9.762939,6.845215 9.762939,7.1064453 9.595459,7.267578 C9.595459,7.267578 2.982666,13.631592 2.982666,13.631592 C2.8989258,13.712158 2.7893066,13.752441 2.6795654,13.752441 Z"/>
</svg>