<svg xmlns="http://www.w3.org/2000/svg"
 width="26px" height="18px"  viewBox="0 0 26 18">
<path fill-rule="evenodd"  fill="#888888"
 d="M8.751099,16.34961 C7.342407,16.266724 6.0617676,15.824951 4.9281006,14.989136 C3.4659424,13.912109 2.5447998,12.475464 2.1577148,10.700562 C2.0170898,10.05835 1.9671631,9.416382 2.0203857,8.767212 C2.121704,7.234131 2.6573486,5.8598633 3.6400146,4.665161 C4.657837,3.414917 5.954956,2.6004639 7.505371,2.2073975 C7.898926,2.1035156 8.293457,2.0411377 8.694458,2.02063 C8.921875,2.0131836 9.150269,1.9996338 9.378052,1.9996338 C10.593262,2.0131836 11.731079,2.317505 12.775635,2.9320068 C13.476929,3.3327637 13.8741455,3.7398682 14.04541,3.86438 C13.329224,4.5687256 12.640625,5.2593994 11.9375,5.949585 C11.416016,5.5004883 10.839355,5.08667 9.839233,4.9344482 C9.631958,4.904785 9.427002,4.8895264 9.226318,4.8895264 C7.219116,4.8895264 5.537842,6.3409424 5.09021,8.242554 C4.9832764,8.6698 4.953003,9.105591 4.9902344,9.5407715 C5.1434326,11.308594 6.326538,12.758789 7.925171,13.276855 C8.332153,13.404907 8.754272,13.465698 9.178711,13.465698 C9.278198,13.465698 9.377075,13.463013 9.477051,13.456665 C10.230103,13.407959 10.935547,13.207764 11.574707,12.786133 C12.650391,12.054321 12.997681,10.907959 13.000122,10.624878 C13.000122,10.624878 9.153931,10.624878 9.153931,10.624878 C9.154419,10.530029 9.168457,8.732544 9.174927,7.8552246 C9.174927,7.8552246 9.182373,7.7384033 9.182373,7.7384033 C9.182373,7.7384033 15.935913,7.7384033 15.935913,7.7384033 C16.29956,9.844971 15.97229,12.060791 14.660767,13.794312 C13.75415,14.989136 12.546875,15.742065 11.107422,16.11499 C10.46875,16.279907 9.820557,16.360962 9.168457,16.360962 C9.029297,16.360962 8.890137,16.35669 8.751099,16.34961 ZM22.08191,12.296265 C22.08191,12.296265 20.25879,12.296265 20.25879,12.296265 C20.25879,12.296265 20.189697,12.296265 20.189697,12.296265 C20.189697,12.296265 20.190063,12.226807 20.190063,12.226807 C20.190063,12.226807 20.208862,9.796265 20.208862,9.796265 C20.208862,9.796265 17.77832,9.796265 17.77832,9.796265 C17.77832,9.796265 17.702026,9.796265 17.702026,9.796265 C17.702026,9.796265 17.702637,9.720215 17.702637,9.720215 C17.702637,9.720215 17.716553,7.9040527 17.716553,7.9040527 C17.716553,7.9040527 17.717041,7.834717 17.717041,7.834717 C17.717041,7.834717 17.79309,7.834717 17.79309,7.834717 C17.79309,7.834717 20.223755,7.834717 20.223755,7.834717 C20.223755,7.834717 20.242432,5.397461 20.242432,5.397461 C20.242432,5.397461 20.24292,5.328369 20.24292,5.328369 C20.24292,5.328369 20.311523,5.328369 20.311523,5.328369 C20.311523,5.328369 22.135132,5.328369 22.135132,5.328369 C22.135132,5.328369 22.203857,5.328369 22.203857,5.328369 C22.203857,5.328369 22.20337,5.397461 22.20337,5.397461 C22.20337,5.397461 22.18457,7.834717 22.18457,7.834717 C22.18457,7.834717 24.6156,7.834717 24.6156,7.834717 C24.6156,7.834717 24.691406,7.834717 24.691406,7.834717 C24.691406,7.834717 24.690796,7.9040527 24.690796,7.9040527 C24.690796,7.9040527 24.67688,9.720215 24.67688,9.720215 C24.67688,9.720215 24.676392,9.796265 24.676392,9.796265 C24.676392,9.796265 24.60083,9.796265 24.60083,9.796265 C24.60083,9.796265 22.170166,9.796265 22.170166,9.796265 C22.170166,9.796265 22.15149,12.226807 22.15149,12.226807 C22.15149,12.226807 22.151001,12.296265 22.151001,12.296265 C22.151001,12.296265 22.08191,12.296265 22.08191,12.296265 Z"/>
</svg>