<svg xmlns="http://www.w3.org/2000/svg"
 width="21px" height="21px" viewBox="0 0 21 21">
<path fill-rule="evenodd" fill="#888888"
 d="M5.588257,18.939453 C3.6380615,18.435425 2.4741821,17.16455 2.1641846,15.189819 C1.9334717,13.739136 1.9091797,6.9992676 2.3275757,5.5356445 C2.8738403,3.6295166 4.1464844,2.510376 6.0753174,2.1933594 C6.94928,2.0500488 8.658447,1.9993896 10.38501,1.9993896 C11.990173,1.9993896 13.608826,2.043457 14.58374,2.0965576 C15.764465,2.1586914 16.845337,2.5385742 17.723083,3.3809814 C18.559204,4.181885 18.986877,5.1829834 19.095215,6.316162 C19.223206,7.6689453 19.306274,14.063843 18.90802,15.562622 C18.374817,17.523438 17.095032,18.68335 15.11084,19.001587 C14.369385,19.121216 12.366455,19.193115 10.366821,19.193115 C8.319946,19.193115 6.2755737,19.117798 5.588257,18.939453 ZM6.5057373,3.6846924 C5.0061035,3.8571777 3.9976196,4.782715 3.758545,6.274536 C3.5115967,7.8553467 3.5143433,13.767334 3.6988525,14.954956 C3.8897095,16.190674 4.588257,17.039917 5.821228,17.385132 C6.4888916,17.572876 8.487122,17.639404 10.446716,17.639404 C12.250183,17.639404 14.021606,17.58313 14.687317,17.509644 C16.20105,17.344482 17.201904,16.411743 17.440979,14.906494 C17.68811,13.394165 17.688416,7.876709 17.547424,6.4606934 C17.393372,4.94812 16.468018,3.9539795 14.972168,3.7191162 C14.231262,3.6069336 12.447266,3.5566406 10.67218,3.5566406 C8.960144,3.5566406 7.255554,3.6036377 6.5057373,3.6846924 ZM6.1905518,10.597412 C6.209778,8.159668 8.199585,6.184326 10.636719,6.1914062 C13.067749,6.1914062 15.027649,8.166626 15.009033,10.604126 C14.990845,13.03479 13.000488,15.01001 10.562866,15.01001 C8.125305,15.01001 6.171875,13.03479 6.1905518,10.597412 ZM7.7443237,10.569702 C7.719116,12.144409 8.972717,13.435669 10.547058,13.448853 C10.547058,13.448853 10.572693,13.449341 10.572693,13.449341 C12.135376,13.449341 13.422546,12.190674 13.44873,10.625122 C13.473877,9.043213 12.220337,7.759033 10.64563,7.745117 C10.64563,7.745117 10.6203,7.745117 10.6203,7.745117 C9.057312,7.745117 7.770508,9.003906 7.7443237,10.569702 ZM14.187805,6.018921 C14.192505,5.4501953 14.651367,4.989868 15.218689,4.989868 C15.218689,4.989868 15.231262,4.989868 15.231262,4.989868 C15.798096,4.989868 16.257019,5.4526367 16.25232,6.025879 C16.247742,6.591919 15.781738,7.0546875 15.208862,7.0546875 C14.636047,7.048218 14.183533,6.585205 14.187805,6.018921 Z"/>
</svg>