<svg xmlns="http://www.w3.org/2000/svg"
 width="40px" height="37px"  viewBox="0 0 40 37">
<path fill-rule="evenodd"
 d="M2.9754028,35.917786 C2.724121,35.917786 2.4837646,35.820007 2.3058472,35.64624 C2.128357,35.471558 2.0284424,35.233765 2.02771,34.987305 C2.02771,34.987305 1.9998169,14.785706 1.9998169,14.785706 C1.9998169,14.779602 2.0004883,14.775085 2.0004883,14.768616 C2.005066,14.4782715 2.1473389,14.1935425 2.4093018,14.015442 C2.4093018,14.015442 7.730774,10.398499 7.730774,10.398499 C7.730774,10.398499 7.730774,6.560913 7.730774,6.560913 C7.730774,6.047241 8.154663,5.6291504 8.678589,5.6291504 C8.678589,5.6291504 14.745544,5.6291504 14.745544,5.6291504 C14.745544,5.6291504 19.96289,2.083496 19.96289,2.083496 C20.28772,1.8618164 20.718018,1.862915 21.041992,2.0841064 C21.041992,2.0841064 26.226868,5.6291504 26.226868,5.6291504 C26.226868,5.6291504 32.320007,5.6291504 32.320007,5.6291504 C32.843506,5.6291504 33.267334,6.047241 33.267334,6.560913 C33.267334,6.560913 33.267334,10.443237 33.267334,10.443237 C33.267334,10.443237 38.564148,14.064026 38.564148,14.064026 C38.753113,14.1935425 38.87976,14.3793335 38.936523,14.582825 C38.95819,14.6293335 38.970886,14.712158 38.970886,14.766846 C38.970886,14.766846 38.998657,34.93695 38.998657,34.93695 C38.999817,35.45044 38.575806,35.8692 38.052734,35.87036 C38.052734,35.87036 2.9761963,35.917786 2.9761963,35.917786 C2.9761963,35.917786 2.9754028,35.917786 2.9754028,35.917786 ZM5.748108,34.05072 C5.748108,34.05072 35.226013,34.009705 35.226013,34.009705 C35.226013,34.009705 20.51361,22.785889 20.51361,22.785889 C20.51361,22.785889 5.748108,34.05072 5.748108,34.05072 ZM3.9203491,33.085938 C3.9203491,33.085938 15.362854,24.356323 15.362854,24.356323 C15.362854,24.356323 3.8971558,16.562683 3.8971558,16.562683 C3.8971558,16.562683 3.9203491,33.085938 3.9203491,33.085938 ZM25.639893,24.338501 C25.639893,24.338501 37.1015,33.082092 37.1015,33.082092 C37.1015,33.082092 37.078125,16.517334 37.078125,16.517334 C37.078125,16.517334 25.639893,24.338501 25.639893,24.338501 ZM9.626282,18.189941 C9.626282,18.189941 16.934326,23.157532 16.934326,23.157532 C16.934326,23.157532 19.933289,20.869568 19.933289,20.869568 C20.277771,20.607056 20.748657,20.615906 21.081482,20.861877 C21.086182,20.86493 21.0896,20.867004 21.094177,20.869568 C21.094177,20.869568 24.071228,23.141602 24.071228,23.141602 C24.071228,23.141602 31.372192,18.149414 31.372192,18.149414 C31.372192,18.149414 31.372192,7.492981 31.372192,7.492981 C31.372192,7.492981 9.626282,7.492981 9.626282,7.492981 C9.626282,7.492981 9.626282,18.189941 9.626282,18.189941 ZM4.6132812,14.782288 C4.6132812,14.782288 7.730774,16.902771 7.730774,16.902771 C7.730774,16.902771 7.730774,12.662476 7.730774,12.662476 C7.730774,12.662476 4.6132812,14.782288 4.6132812,14.782288 ZM33.267334,16.853577 C33.267334,16.853577 36.295227,14.783447 36.295227,14.783447 C36.295227,14.783447 33.267334,12.713501 33.267334,12.713501 C33.267334,12.713501 33.267334,16.853577 33.267334,16.853577 ZM18.079102,5.6291504 C18.079102,5.6291504 22.90747,5.6291504 22.90747,5.6291504 C22.90747,5.6291504 20.500244,3.984375 20.500244,3.984375 C20.500244,3.984375 18.079102,5.6291504 18.079102,5.6291504 ZM14.084778,17.93158 C13.56134,17.93158 13.137329,17.51361 13.137329,16.998962 C13.137329,16.485168 13.56134,16.0672 14.084778,16.0672 C14.084778,16.0672 26.91455,16.0672 26.91455,16.0672 C27.437256,16.0672 27.861206,16.485168 27.861206,16.998962 C27.861206,17.51361 27.437256,17.93158 26.91455,17.93158 C26.91455,17.93158 14.084778,17.93158 14.084778,17.93158 ZM14.084778,13.085083 C13.56134,13.085083 13.137329,12.66748 13.137329,12.153503 C13.137329,11.63855 13.56134,11.221252 14.084778,11.221252 C14.084778,11.221252 26.91455,11.221252 26.91455,11.221252 C27.437256,11.221252 27.861206,11.63855 27.861206,12.153503 C27.861206,12.66748 27.437256,13.085083 26.91455,13.085083 C26.91455,13.085083 14.084778,13.085083 14.084778,13.085083 Z"/>
</svg>