<svg xmlns="http://www.w3.org/2000/svg"
 xmlns:xlink="http://www.w3.org/1999/xlink"
 width="20px" height="20px"  viewBox="0 0 20 20">
<path fill-rule="evenodd"  fill="#094074"
 d="M18.24939,18.919922 C18.097778,18.919922 17.946045,18.862274 17.830078,18.746124 C17.830078,18.746124 12.53125,13.447998 12.53125,13.447998 C11.397705,14.393463 9.940796,14.961609 8.353394,14.961609 C4.752075,14.961609 1.8220215,12.032166 1.8220215,8.430542 C1.8220215,4.829468 4.752075,1.8992004 8.353394,1.8992004 C11.955078,1.8992004 14.884399,4.829468 14.884399,8.430542 C14.884399,10.018005 14.316162,11.475006 13.370972,12.608551 C13.370972,12.608551 18.668823,17.907227 18.668823,17.907227 C18.78479,18.023102 18.842773,18.174957 18.842773,18.326538 C18.842773,18.478119 18.78479,18.629944 18.668823,18.746124 C18.552856,18.862274 18.401123,18.919922 18.24939,18.919922 ZM8.353394,3.086853 C5.4069824,3.086853 3.0097656,5.4841003 3.0097656,8.430542 C3.0097656,11.377258 5.4069824,13.77478 8.353394,13.77478 C11.299927,13.77478 13.697632,11.377258 13.697632,8.430542 C13.697632,5.4841003 11.299927,3.086853 8.353394,3.086853 Z"/>
</svg>