<svg width="96" height="96" viewBox="0 0 96 96" fill="none" xmlns="http://www.w3.org/2000/svg">
<path d="M42.8591 8.54233C45.1911 4.66741 50.8089 4.66741 53.1409 8.54233L62.489 24.0757C63.3267 25.4678 64.6932 26.4606 66.276 26.8272L83.9379 30.9177C88.3437 31.9381 90.0797 37.2809 87.1151 40.6961L75.2307 54.3868C74.1657 55.6137 73.6437 57.2201 73.7842 58.8388L75.3517 76.9002C75.7427 81.4058 71.1978 84.7078 67.0336 82.9436L50.3405 75.8716C48.8445 75.2378 47.1555 75.2378 45.6595 75.8716L28.9664 82.9436C24.8022 84.7078 20.2573 81.4058 20.6483 76.9002L22.2158 58.8388C22.3563 57.2201 21.8343 55.6137 20.7693 54.3868L8.88492 40.6961C5.92027 37.2809 7.65625 31.9381 12.0621 30.9177L29.724 26.8272C31.3068 26.4606 32.6733 25.4678 33.511 24.0757L42.8591 8.54233Z" fill="#FFCC00"/>
</svg>
