<svg xmlns="http://www.w3.org/2000/svg"
 xmlns:xlink="http://www.w3.org/1999/xlink"
 width="46px" height="42px"  viewBox="0 0 46 42">
<path fill-rule="evenodd"  fill="#a3bbc8"
 d="M38.86963,10.647522 C38.86963,10.647522 38.86963,3.5216675 38.86963,3.5216675 C38.86963,2.7373047 38.47644,2.0318604 37.81787,1.6350098 C37.157227,1.2365723 36.361816,1.2283325 35.691284,1.6137695 C29.289429,5.2910156 22.324219,7.438904 14.991089,7.9970703 C14.934814,8.001343 8.306885,8.03125 8.306885,8.03125 C6.64209,8.03125 5.2661133,9.322205 5.0758057,10.9800415 C5.0758057,10.9800415 3.71521,10.9800415 3.71521,10.9800415 C2.2259521,10.9800415 1.0140381,12.22467 1.0140381,13.754272 C1.0140381,13.754272 1.0140381,19.849487 1.0140381,19.849487 C1.0140381,21.379517 2.2259521,22.624207 3.71521,22.624207 C3.71521,22.624207 5.0755615,22.624207 5.0755615,22.624207 C5.2126465,23.817444 5.963501,24.819641 6.994629,25.288269 C6.994629,25.288269 11.835327,39.010803 11.835327,39.010803 C12.137817,39.86505 12.936035,40.438904 13.821167,40.438904 C13.821167,40.438904 18.679321,40.438904 18.679321,40.438904 C19.368042,40.438904 20.01477,40.0932 20.410034,39.513794 C20.80481,38.934143 20.90039,38.191345 20.66504,37.52771 C20.66504,37.52771 16.505981,25.743408 16.505981,25.743408 C23.283691,26.466797 29.730713,28.56372 35.691284,31.987305 C36.02014,32.176086 36.37903,32.270386 36.737183,32.270386 C37.109253,32.270203 37.48108,32.168518 37.81787,31.965637 C38.476074,31.568726 38.869263,30.863525 38.869263,30.078491 C38.869263,30.078491 38.869263,22.953125 38.869263,22.953125 C41.833862,22.558716 44.13208,19.950989 44.13208,16.800415 C44.13208,13.649658 41.833862,11.041687 38.86963,10.647522 ZM5.052368,20.484375 C5.052368,20.484375 3.71521,20.484375 3.71521,20.484375 C3.3745117,20.484375 3.097168,20.199646 3.097168,19.849487 C3.097168,19.849487 3.097168,13.754272 3.097168,13.754272 C3.097168,13.404541 3.3745117,13.119873 3.71521,13.119873 C3.71521,13.119873 5.052368,13.119873 5.052368,13.119873 C5.052368,13.119873 5.052368,20.484375 5.052368,20.484375 ZM7.829468,23.327637 C7.4210205,23.13971 7.135498,22.718933 7.135498,22.230225 C7.135498,22.230225 7.135498,11.373779 7.135498,11.373779 C7.135498,11.373779 7.135498,11.373779 7.135498,11.373779 C7.135498,10.71051 7.6608887,10.170898 8.306519,10.170898 C8.306519,10.170898 13.977173,10.170898 13.977173,10.170898 C13.977173,10.170898 13.977173,23.433105 13.977173,23.433105 C13.977173,23.433105 8.257202,23.430847 8.232422,23.429321 C8.023682,23.40448 7.9796143,23.393555 7.829468,23.327637 ZM18.707031,38.257996 C18.710083,38.266907 18.712646,38.27295 18.703491,38.28589 C18.694458,38.299072 18.687744,38.299072 18.679321,38.299072 C18.679321,38.299072 13.820801,38.299072 13.820801,38.299072 C13.808594,38.299072 13.796997,38.291016 13.793579,38.280518 C13.793579,38.280518 9.310425,25.572693 9.310425,25.572693 C9.310425,25.572693 14.22937,25.572693 14.22937,25.572693 C14.22937,25.572693 18.707031,38.257996 18.707031,38.257996 ZM36.78601,30.07898 C36.78601,30.094177 36.78601,30.10669 36.763794,30.120056 C36.737183,30.13617 36.72107,30.127014 36.70813,30.119629 C30.305054,26.441956 23.36267,24.234192 16.060303,23.5495 C16.060303,23.5495 16.060303,10.052246 16.060303,10.052246 C23.363403,9.366455 30.30542,7.1586914 36.707764,3.481018 C36.72107,3.473877 36.73755,3.4646606 36.763794,3.4805298 C36.78601,3.4939575 36.78601,3.5062256 36.78601,3.5216675 C36.78601,3.5216675 36.78601,30.07898 36.78601,30.07898 ZM38.86963,20.78717 C38.86963,20.78717 38.86963,12.813477 38.86963,12.813477 C40.68042,13.186462 42.04895,14.832214 42.04895,16.800415 C42.04895,18.768433 40.68042,20.41394 38.86963,20.78717 Z"/>
</svg>