<svg xmlns="http://www.w3.org/2000/svg"
 xmlns:xlink="http://www.w3.org/1999/xlink"
 width="45px" height="44px"  viewBox="0 0 45 44">
<path fill-rule="evenodd"  fill="#a3bbc8"
 d="M13.90332,33.695435 C13.90332,32.381714 14.199219,31.135742 14.727661,30.024475 C14.727661,30.024475 1.5095215,9.578308 1.5095215,9.578308 C1.2773438,9.218079 1.3249512,8.743042 1.6246338,8.438904 C1.6246338,8.438904 7.9433594,2.020752 7.9433594,2.020752 C8.110962,1.850708 8.3376465,1.7554932 8.574341,1.7554932 C8.574341,1.7554932 35.918945,1.7554932 35.918945,1.7554932 C36.15564,1.7554932 36.38269,1.850708 36.549927,2.020752 C36.549927,2.020752 42.86902,8.438904 42.86902,8.438904 C43.167725,8.743042 43.215332,9.218079 42.98413,9.578308 C42.98413,9.578308 29.765015,30.025146 29.765015,30.025146 C30.292969,31.135742 30.589233,32.381714 30.589233,33.695435 C30.589233,38.36841 26.846191,42.16986 22.246582,42.16986 C17.646484,42.16986 13.90332,38.36841 13.90332,33.695435 ZM15.68811,33.695435 C15.68811,37.369324 18.630005,40.35736 22.246582,40.35736 C25.862305,40.35736 28.804443,37.369324 28.804443,33.695435 C28.804443,30.022705 25.862305,27.033691 22.246582,27.033691 C18.630005,27.033691 15.68811,30.022705 15.68811,33.695435 ZM24.23706,25.465027 C26.02356,25.911499 27.585938,26.942993 28.713623,28.34851 C28.713623,28.34851 40.58374,9.986755 40.58374,9.986755 C40.58374,9.986755 34.244995,9.986755 34.244995,9.986755 C34.244995,9.986755 24.23706,25.465027 24.23706,25.465027 ZM15.779053,28.34784 C16.906738,26.942993 18.469116,25.911499 20.255615,25.465027 C20.255615,25.465027 10.247314,9.986755 10.247314,9.986755 C10.247314,9.986755 3.9088135,9.986755 3.9088135,9.986755 C3.9088135,9.986755 15.779053,28.34784 15.779053,28.34784 ZM22.232788,25.221252 C22.237427,25.221252 22.241943,25.221252 22.246582,25.221252 C22.25061,25.221252 22.255249,25.221252 22.259766,25.221252 C22.259766,25.221252 32.109375,9.986755 32.109375,9.986755 C32.109375,9.986755 12.383179,9.986755 12.383179,9.986755 C12.383179,9.986755 22.232788,25.221252 22.232788,25.221252 ZM4.4101562,8.174072 C4.4101562,8.174072 10.728149,8.174072 10.728149,8.174072 C10.734497,8.174072 10.740723,8.174072 10.74707,8.174072 C10.74707,8.174072 33.745605,8.174072 33.745605,8.174072 C33.75183,8.174072 33.75818,8.174072 33.764404,8.174072 C33.764404,8.174072 40.083496,8.174072 40.083496,8.174072 C40.083496,8.174072 35.549316,3.5679321 35.549316,3.5679321 C35.549316,3.5679321 8.943359,3.5679321 8.943359,3.5679321 C8.943359,3.5679321 4.4101562,8.174072 4.4101562,8.174072 ZM21.65686,37.092896 C21.65686,37.092896 21.65686,32.190674 21.65686,32.190674 C21.65686,32.190674 21.131104,32.190674 21.131104,32.190674 C20.639038,32.190674 20.239258,31.784851 20.239258,31.284546 C20.239258,30.783325 20.639038,30.37732 21.131104,30.37732 C21.131104,30.37732 22.549683,30.37732 22.549683,30.37732 C23.041748,30.37732 23.44165,30.783325 23.44165,31.284546 C23.44165,31.284546 23.44165,37.092896 23.44165,37.092896 C23.44165,37.5932 23.041748,37.999207 22.549683,37.999207 C22.056519,37.999207 21.65686,37.5932 21.65686,37.092896 Z"/>
</svg>