<svg xmlns="http://www.w3.org/2000/svg"
 xmlns:xlink="http://www.w3.org/1999/xlink"
 width="39px" height="40px"  viewBox="0 0 39 40">
<path fill-rule="evenodd"  fill="#a3bbc8"
 d="M2.9753418,38.960266 C1.887085,38.960266 1.0015869,38.06665 1.0015869,36.96881 C1.0015869,36.96881 1.0015869,9.691345 1.0015869,9.691345 C1.0015869,9.450195 1.0971069,9.218933 1.2663574,9.0477295 C1.2663574,9.0477295 8.742493,1.5058594 8.742493,1.5058594 C8.911743,1.3348999 9.141174,1.2385864 9.380798,1.2385864 C9.380798,1.2385864 28.472412,1.2385864 28.472412,1.2385864 C29.55951,1.2385864 30.444336,2.1322021 30.444336,3.2302856 C30.444336,3.2302856 30.444336,6.1030273 30.444336,6.1030273 C30.444336,6.6051636 30.04004,7.0131836 29.542358,7.0131836 C29.043945,7.0131836 28.639648,6.6051636 28.639648,6.1030273 C28.639648,6.1030273 28.639648,3.2302856 28.639648,3.2302856 C28.639648,3.1359863 28.564087,3.0601807 28.472412,3.0601807 C28.472412,3.0601807 10.283508,3.0601807 10.283508,3.0601807 C10.283508,3.0601807 10.283508,8.612244 10.283508,8.612244 C10.283508,9.709412 9.397888,10.602112 8.309753,10.602112 C8.309753,10.602112 2.8070068,10.602112 2.8070068,10.602112 C2.8070068,10.602112 2.8070068,36.96881 2.8070068,36.96881 C2.8070068,37.06244 2.8826294,37.138855 2.9753418,37.138855 C2.9753418,37.138855 28.472412,37.138855 28.472412,37.138855 C28.564087,37.138855 28.639648,37.06244 28.639648,36.96881 C28.639648,36.96881 28.639648,23.06726 28.639648,23.06726 C28.639648,22.564941 29.043945,22.157349 29.542358,22.157349 C30.04004,22.157349 30.444336,22.564941 30.444336,23.06726 C30.444336,23.06726 30.444336,36.96881 30.444336,36.96881 C30.444336,38.06665 29.55951,38.960266 28.471375,38.960266 C28.471375,38.960266 2.9753418,38.960266 2.9753418,38.960266 ZM4.083374,8.781616 C4.083374,8.781616 8.309753,8.781616 8.309753,8.781616 C8.402466,8.781616 8.478088,8.7052 8.478088,8.611572 C8.478088,8.611572 8.478088,4.347351 8.478088,4.347351 C8.478088,4.347351 4.083374,8.781616 4.083374,8.781616 ZM8.059387,32.490295 C7.5616455,32.490295 7.157715,32.08246 7.157715,31.579224 C7.157715,31.077148 7.5616455,30.669556 8.059387,30.669556 C8.059387,30.669556 11.998779,30.669556 11.998779,30.669556 C11.998779,30.669556 13.392883,25.604431 13.392883,25.604431 C13.434204,25.453125 13.513489,25.315247 13.624084,25.203735 C13.624084,25.203735 13.638367,25.189453 13.638367,25.189453 C13.638367,25.189453 8.059387,25.189453 8.059387,25.189453 C7.5616455,25.189453 7.157715,24.781616 7.157715,24.278625 C7.157715,23.776306 7.5616455,23.368713 8.059387,23.368713 C8.059387,23.368713 15.443237,23.368713 15.443237,23.368713 C15.443237,23.368713 20.874573,17.888672 20.874573,17.888672 C20.874573,17.888672 8.059387,17.888672 8.059387,17.888672 C7.5616455,17.888672 7.157715,17.48108 7.157715,16.978699 C7.157715,16.475525 7.5616455,16.067932 8.059387,16.067932 C8.059387,16.067932 22.680115,16.067932 22.680115,16.067932 C22.680115,16.067932 31.108582,7.5646973 31.108582,7.5646973 C32.299194,6.363159 34.236816,6.363159 35.426758,7.5646973 C35.426758,7.5646973 36.488525,8.635681 36.488525,8.635681 C37.679565,9.836365 37.679565,11.790955 36.488525,12.991577 C36.488525,12.991577 19.004395,30.631775 19.004395,30.631775 C18.893616,30.743286 18.756836,30.823486 18.607483,30.865723 C18.607483,30.865723 12.9157715,32.45874 12.911194,32.46057 C12.882568,32.467712 12.684631,32.490295 12.684631,32.490295 C12.684631,32.490295 8.059387,32.490295 8.059387,32.490295 ZM13.981567,30.27179 C13.981567,30.27179 16.633728,29.52832 16.633728,29.52832 C16.633728,29.52832 14.717773,27.595215 14.717773,27.595215 C14.717773,27.595215 13.981567,30.27179 13.981567,30.27179 ZM15.53833,25.848206 C15.53833,25.848206 18.365479,28.701294 18.365479,28.701294 C18.365479,28.701294 32.799683,14.139221 32.799683,14.139221 C32.799683,14.139221 29.971802,11.287048 29.971802,11.287048 C29.971802,11.287048 15.53833,25.848206 15.53833,25.848206 ZM32.38446,8.851807 C32.38446,8.851807 31.248047,9.999268 31.248047,9.999268 C31.248047,9.999268 34.07556,12.852356 34.07556,12.852356 C34.07556,12.852356 35.21228,11.704895 35.21228,11.704895 C35.699463,11.213257 35.699463,10.414185 35.21228,9.922791 C35.21228,9.922791 34.15039,8.851807 34.15039,8.851807 C33.90735,8.605957 33.587646,8.483276 33.267944,8.483276 C32.947998,8.483276 32.62787,8.605957 32.38446,8.851807 Z"/>
</svg>